<svg width="226" height="473" viewBox="0 0 226 473" fill="none" xmlns="http://www.w3.org/2000/svg">
<path fill-rule="evenodd" clip-rule="evenodd" d="M192.389 0.592041H32.7231C14.6506 0.592041 0 15.2427 0 33.3151V439.533C0 457.605 14.6506 472.256 32.7231 472.256H192.389C210.462 472.256 225.112 457.605 225.112 439.533V33.3151C225.112 15.2427 210.462 0.592041 192.389 0.592041ZM6.77029 33.3151C6.77029 18.9818 18.3897 7.36233 32.7231 7.36233H49.1319C51.0762 8.0465 52.4698 9.89927 52.4698 12.0774C52.4698 18.977 58.063 24.5702 64.9626 24.5702H159.586C166.485 24.5702 172.078 18.977 172.078 12.0774C172.078 9.89927 173.472 8.0465 175.416 7.36233H192.389C206.722 7.36233 218.342 18.9818 218.342 33.3151V439.533C218.342 453.866 206.722 465.485 192.389 465.485H32.7231C18.3897 465.485 6.77029 453.866 6.77029 439.533V33.3151Z" fill="url(#paint0_linear_3_898)"/>
<g opacity="0.6">
<circle cx="99" cy="14.0781" r="2" fill="#DFDFE6"/>
<rect x="103.667" y="12.0781" width="25.3333" height="4" rx="2" fill="#DFDFE6"/>
</g>
<mask id="mask0_3_898" style="mask-type:alpha" maskUnits="userSpaceOnUse" x="6" y="7" width="213" height="459">
<path fill-rule="evenodd" clip-rule="evenodd" d="M6.80553 31.9504C6.78211 32.4023 6.77026 32.8573 6.77026 33.315V439.533C6.77026 453.866 18.3897 465.485 32.723 465.485H192.389C206.722 465.485 218.342 453.866 218.342 439.533V33.315C218.342 33.259 218.342 33.2031 218.341 33.1472C218.251 18.8911 206.666 7.36224 192.389 7.36224H175.416C173.472 8.04641 172.078 9.89918 172.078 12.0773C172.078 18.9769 166.485 24.5701 159.585 24.5701H64.9625C58.063 24.5701 52.4697 18.9769 52.4697 12.0773C52.4697 9.89918 51.0761 8.04641 49.1319 7.36224H32.723C26.256 7.36224 20.3415 9.72763 15.7973 13.6404C14.0468 15.1478 12.4996 16.8847 11.2026 18.8046C8.64256 22.5939 7.05702 27.0957 6.80553 31.9504Z" fill="black"/>
</mask>
<g mask="url(#mask0_3_898)">
<path d="M6.76685 7.36224H218.338V465.485H6.76685V7.36224Z" fill="url(#paint1_linear_3_898)"/>
<rect x="6.50757" y="7.52649" width="211.364" height="457.674" rx="9.0182" fill="url(#paint2_linear_3_898)"/>
<path fill-rule="evenodd" clip-rule="evenodd" d="M59.9944 81.4981C60.1305 81.7834 60.5367 81.7834 60.6728 81.4981L63.4176 75.7429H63.6905L66.4353 81.4981C66.5714 81.7834 66.9775 81.7834 67.1136 81.4981L69.8584 75.7429H70.131L72.8758 81.4981C73.0119 81.7834 73.418 81.7834 73.5541 81.4981L76.2989 75.7429H76.5713L79.3162 81.4981C79.4523 81.7834 79.8584 81.7834 79.9945 81.4981L82.7393 75.7429H83.0121L85.7569 81.4981C85.893 81.7834 86.2991 81.7834 86.4352 81.4981L89.18 75.7429H89.4526L92.1974 81.4981C92.3335 81.7834 92.7396 81.7834 92.8757 81.4981L95.6205 75.7429H95.8931L98.6379 81.4981C98.774 81.7834 99.1801 81.7834 99.3162 81.4981L102.061 75.7429H102.333L105.078 81.4981C105.214 81.7834 105.62 81.7834 105.756 81.4981L108.501 75.7429H108.774L111.519 81.4981C111.655 81.7834 112.061 81.7834 112.197 81.4981L114.942 75.7429H115.215L117.959 81.4981C118.096 81.7834 118.502 81.7834 118.638 81.4981L121.383 75.7429H121.655L124.4 81.4981C124.536 81.7834 124.942 81.7834 125.078 81.4981L127.823 75.7429H128.095L130.84 81.4982C130.976 81.7835 131.383 81.7835 131.519 81.4982L134.264 75.7429H134.536L137.281 81.4982C137.417 81.7835 137.823 81.7835 137.959 81.4982L140.704 75.7429H140.977L143.721 81.4982C143.858 81.7835 144.264 81.7835 144.4 81.4982L147.145 75.7429H147.417L150.162 81.4982C150.298 81.7835 150.704 81.7835 150.84 81.4982L153.585 75.7429H153.857L156.602 81.4982C156.738 81.7835 157.145 81.7835 157.281 81.4982L160.026 75.7429H160.298L163.043 81.4982C163.179 81.7835 163.585 81.7835 163.721 81.4982L166.466 75.7429H166.738L169.483 81.4982C169.619 81.7835 170.025 81.7835 170.162 81.4982L172.906 75.7429H173.179L175.924 81.4982C176.06 81.7835 176.466 81.7835 176.602 81.4982L179.347 75.7429H179.635L182.38 81.4982C182.516 81.7835 182.922 81.7835 183.058 81.4982L185.803 75.7429H186.09L188.835 81.4982C188.971 81.7835 189.378 81.7835 189.514 81.4982L192.258 75.7429H192.546L195.291 81.4982C195.427 81.7835 195.833 81.7835 195.969 81.4982L198.714 75.7429H199.108V377.101H24.5439V75.7429H25.0473L27.7922 81.4982C27.9283 81.7835 28.3344 81.7835 28.4705 81.4982L31.2154 75.7429H31.4876L34.2325 81.4982C34.3685 81.7835 34.7747 81.7835 34.9108 81.4982L37.6557 75.7429H37.9283L40.6732 81.4982C40.8093 81.7835 41.2154 81.7835 41.3515 81.4982L44.0964 75.7429H44.3689L47.1138 81.4982C47.2499 81.7835 47.656 81.7835 47.7921 81.4982L50.537 75.7429H50.8092L53.5541 81.4982C53.6902 81.7835 54.0963 81.7835 54.2324 81.4982L56.9773 75.7429H57.2496L59.9944 81.4981Z" fill="#FBF9BE"/>
<rect opacity="0.6" x="24.5439" y="334.265" width="174.728" height="37.5758" fill="url(#paint3_linear_3_898)"/>
<path d="M15.1499 360.568H208.665V380.107C208.665 381.767 207.32 383.113 205.659 383.113H18.156C16.4958 383.113 15.1499 381.767 15.1499 380.107V360.568Z" fill="#0896D7"/>
<path d="M24.5439 360.568H15.1499L24.5439 355.683V360.568Z" fill="#0888C2"/>
<path d="M199.272 360.568H208.666L199.272 355.683V360.568Z" fill="#0888C2"/>
<path d="M73.3142 54.3382C73.3142 53.5125 73.4985 52.775 73.8673 52.1257C74.244 51.4684 74.7531 50.9594 75.3944 50.5987C76.0437 50.2299 76.7691 50.0455 77.5708 50.0455C78.5086 50.0455 79.3303 50.286 80.0357 50.767C80.7411 51.248 81.2341 51.9133 81.5147 52.763H79.5788C79.3864 52.3622 79.1139 52.0616 78.7612 51.8612C78.4165 51.6608 78.0156 51.5606 77.5587 51.5606C77.0697 51.5606 76.6329 51.6768 76.2481 51.9093C75.8713 52.1337 75.5747 52.4544 75.3583 52.8712C75.1499 53.2881 75.0457 53.7771 75.0457 54.3382C75.0457 54.8913 75.1499 55.3803 75.3583 55.8052C75.5747 56.222 75.8713 56.5467 76.2481 56.7791C76.6329 57.0036 77.0697 57.1158 77.5587 57.1158C78.0156 57.1158 78.4165 57.0156 78.7612 56.8152C79.1139 56.6068 79.3864 56.3022 79.5788 55.9014H81.5147C81.2341 56.7591 80.7411 57.4284 80.0357 57.9094C79.3383 58.3824 78.5167 58.6188 77.5708 58.6188C76.7691 58.6188 76.0437 58.4385 75.3944 58.0777C74.7531 57.709 74.244 57.2 73.8673 56.5507C73.4985 55.9014 73.3142 55.1639 73.3142 54.3382ZM85.9105 58.6549C85.2692 58.6549 84.6921 58.5146 84.179 58.2341C83.666 57.9455 83.2612 57.5407 82.9646 57.0196C82.676 56.4986 82.5317 55.8973 82.5317 55.216C82.5317 54.5346 82.68 53.9334 82.9766 53.4123C83.2812 52.8913 83.694 52.4905 84.2151 52.2099C84.7361 51.9213 85.3173 51.777 85.9586 51.777C86.5999 51.777 87.1811 51.9213 87.7021 52.2099C88.2232 52.4905 88.632 52.8913 88.9286 53.4123C89.2332 53.9334 89.3855 54.5346 89.3855 55.216C89.3855 55.8973 89.2292 56.4986 88.9166 57.0196C88.612 57.5407 88.1951 57.9455 87.6661 58.2341C87.145 58.5146 86.5598 58.6549 85.9105 58.6549ZM85.9105 57.1879C86.2151 57.1879 86.4997 57.1158 86.7642 56.9715C87.0368 56.8192 87.2532 56.5948 87.4136 56.2982C87.5739 56.0016 87.654 55.6408 87.654 55.216C87.654 54.5827 87.4857 54.0977 87.149 53.761C86.8204 53.4163 86.4155 53.244 85.9346 53.244C85.4536 53.244 85.0488 53.4163 84.7201 53.761C84.3995 54.0977 84.2391 54.5827 84.2391 55.216C84.2391 55.8492 84.3955 56.3382 84.7081 56.6829C85.0287 57.0196 85.4295 57.1879 85.9105 57.1879ZM98.8931 51.7891C99.7107 51.7891 100.368 52.0416 100.865 52.5466C101.37 53.0436 101.623 53.741 101.623 54.6388V58.5467H99.9392V54.8673C99.9392 54.3462 99.8069 53.9494 99.5424 53.6769C99.2778 53.3963 98.9171 53.256 98.4602 53.256C98.0033 53.256 97.6385 53.3963 97.366 53.6769C97.1014 53.9494 96.9692 54.3462 96.9692 54.8673V58.5467H95.2858V54.8673C95.2858 54.3462 95.1535 53.9494 94.889 53.6769C94.6244 53.3963 94.2637 53.256 93.8068 53.256C93.3419 53.256 92.9731 53.3963 92.7006 53.6769C92.436 53.9494 92.3038 54.3462 92.3038 54.8673V58.5467H90.6204V51.8852H92.3038V52.6909C92.5202 52.4103 92.7968 52.1899 93.1334 52.0295C93.4781 51.8692 93.8549 51.7891 94.2637 51.7891C94.7848 51.7891 95.2497 51.9013 95.6585 52.1257C96.0674 52.3422 96.384 52.6548 96.6085 53.0636C96.8249 52.6788 97.1375 52.3702 97.5463 52.1378C97.9632 51.9053 98.4121 51.7891 98.8931 51.7891ZM104.903 52.8472C105.12 52.5426 105.416 52.2901 105.793 52.0897C106.178 51.8812 106.615 51.777 107.104 51.777C107.673 51.777 108.186 51.9173 108.643 52.1979C109.108 52.4784 109.473 52.8793 109.737 53.4003C110.01 53.9133 110.146 54.5105 110.146 55.1919C110.146 55.8733 110.01 56.4785 109.737 57.0076C109.473 57.5286 109.108 57.9335 108.643 58.222C108.186 58.5106 107.673 58.6549 107.104 58.6549C106.615 58.6549 106.182 58.5547 105.805 58.3543C105.436 58.1539 105.136 57.9014 104.903 57.5968V61.7211H103.22V51.8852H104.903V52.8472ZM108.427 55.1919C108.427 54.7911 108.342 54.4464 108.174 54.1578C108.014 53.8612 107.797 53.6368 107.525 53.4845C107.26 53.3322 106.972 53.256 106.659 53.256C106.354 53.256 106.066 53.3362 105.793 53.4965C105.529 53.6488 105.312 53.8733 105.144 54.1699C104.984 54.4665 104.903 54.8152 104.903 55.216C104.903 55.6168 104.984 55.9655 105.144 56.2621C105.312 56.5587 105.529 56.7871 105.793 56.9475C106.066 57.0998 106.354 57.1759 106.659 57.1759C106.972 57.1759 107.26 57.0958 107.525 56.9354C107.797 56.7751 108.014 56.5467 108.174 56.2501C108.342 55.9535 108.427 55.6007 108.427 55.1919ZM113.053 52.9193C113.269 52.5666 113.55 52.2901 113.894 52.0897C114.247 51.8893 114.648 51.7891 115.097 51.7891V53.5566H114.652C114.123 53.5566 113.722 53.6809 113.449 53.9294C113.185 54.1779 113.053 54.6107 113.053 55.228V58.5467H111.369V51.8852H113.053V52.9193ZM119.189 58.6549C118.547 58.6549 117.97 58.5146 117.457 58.2341C116.944 57.9455 116.539 57.5407 116.243 57.0196C115.954 56.4986 115.81 55.8973 115.81 55.216C115.81 54.5346 115.958 53.9334 116.255 53.4123C116.559 52.8913 116.972 52.4905 117.493 52.2099C118.014 51.9213 118.595 51.777 119.237 51.777C119.878 51.777 120.459 51.9213 120.98 52.2099C121.501 52.4905 121.91 52.8913 122.207 53.4123C122.511 53.9334 122.664 54.5346 122.664 55.216C122.664 55.8973 122.507 56.4986 122.195 57.0196C121.89 57.5407 121.473 57.9455 120.944 58.2341C120.423 58.5146 119.838 58.6549 119.189 58.6549ZM119.189 57.1879C119.493 57.1879 119.778 57.1158 120.042 56.9715C120.315 56.8192 120.531 56.5948 120.692 56.2982C120.852 56.0016 120.932 55.6408 120.932 55.216C120.932 54.5827 120.764 54.0977 120.427 53.761C120.098 53.4163 119.694 53.244 119.213 53.244C118.732 53.244 118.327 53.4163 117.998 53.761C117.678 54.0977 117.517 54.5827 117.517 55.216C117.517 55.8492 117.674 56.3382 117.986 56.6829C118.307 57.0196 118.708 57.1879 119.189 57.1879ZM126.676 56.9956L128.359 51.8852H130.151L127.686 58.5467H125.642L123.189 51.8852H124.993L126.676 56.9956ZM130.664 55.1919C130.664 54.5186 130.796 53.9214 131.061 53.4003C131.333 52.8793 131.698 52.4784 132.155 52.1979C132.62 51.9173 133.137 51.777 133.706 51.777C134.203 51.777 134.636 51.8772 135.004 52.0776C135.381 52.278 135.682 52.5306 135.906 52.8352V51.8852H137.602V58.5467H135.906V57.5727C135.69 57.8854 135.389 58.1459 135.004 58.3543C134.628 58.5547 134.191 58.6549 133.694 58.6549C133.133 58.6549 132.62 58.5106 132.155 58.222C131.698 57.9335 131.333 57.5286 131.061 57.0076C130.796 56.4785 130.664 55.8733 130.664 55.1919ZM135.906 55.216C135.906 54.8071 135.826 54.4584 135.666 54.1699C135.505 53.8733 135.289 53.6488 135.016 53.4965C134.744 53.3362 134.451 53.256 134.139 53.256C133.826 53.256 133.538 53.3322 133.273 53.4845C133.008 53.6368 132.792 53.8612 132.624 54.1578C132.463 54.4464 132.383 54.7911 132.383 55.1919C132.383 55.5927 132.463 55.9454 132.624 56.2501C132.792 56.5467 133.008 56.7751 133.273 56.9354C133.546 57.0958 133.834 57.1759 134.139 57.1759C134.451 57.1759 134.744 57.0998 135.016 56.9475C135.289 56.7871 135.505 56.5627 135.666 56.2741C135.826 55.9775 135.906 55.6248 135.906 55.216ZM142.937 51.7891C143.731 51.7891 144.372 52.0416 144.861 52.5466C145.35 53.0436 145.595 53.741 145.595 54.6388V58.5467H143.911V54.8673C143.911 54.3382 143.779 53.9334 143.514 53.6528C143.25 53.3642 142.889 53.2199 142.432 53.2199C141.967 53.2199 141.599 53.3642 141.326 53.6528C141.062 53.9334 140.929 54.3382 140.929 54.8673V58.5467H139.246V51.8852H140.929V52.7149C141.154 52.4263 141.438 52.2019 141.783 52.0416C142.136 51.8732 142.52 51.7891 142.937 51.7891ZM149.155 53.268V56.4905C149.155 56.715 149.208 56.8793 149.312 56.9835C149.424 57.0797 149.608 57.1278 149.865 57.1278H150.646V58.5467H149.588C148.169 58.5467 147.46 57.8573 147.46 56.4785V53.268H146.666V51.8852H147.46V50.2379H149.155V51.8852H150.646V53.268H149.155ZM158.05 55.0717C158.05 55.3122 158.034 55.5286 158.002 55.721H153.132C153.172 56.202 153.34 56.5787 153.637 56.8513C153.933 57.1238 154.298 57.2601 154.731 57.2601C155.356 57.2601 155.801 56.9916 156.066 56.4545H157.881C157.689 57.0958 157.32 57.6248 156.775 58.0417C156.23 58.4505 155.561 58.6549 154.767 58.6549C154.126 58.6549 153.549 58.5146 153.036 58.2341C152.531 57.9455 152.134 57.5407 151.845 57.0196C151.565 56.4986 151.424 55.8973 151.424 55.216C151.424 54.5266 151.565 53.9214 151.845 53.4003C152.126 52.8793 152.519 52.4784 153.024 52.1979C153.529 51.9173 154.11 51.777 154.767 51.777C155.4 51.777 155.966 51.9133 156.463 52.1859C156.968 52.4584 157.356 52.8472 157.629 53.3522C157.909 53.8492 158.05 54.4224 158.05 55.0717ZM156.306 54.5907C156.298 54.1578 156.142 53.8131 155.837 53.5566C155.533 53.2921 155.16 53.1598 154.719 53.1598C154.302 53.1598 153.949 53.2881 153.661 53.5446C153.38 53.7931 153.208 54.1418 153.144 54.5907H156.306Z" fill="white"/>
<path fill-rule="evenodd" clip-rule="evenodd" d="M29.5174 50.4283L24.9373 55.0084L25.7344 55.8055L30.3145 51.2254L34.8946 55.8055L35.6917 55.0084L31.1116 50.4283L35.692 45.8479L34.8949 45.0508L30.3145 49.6312L25.7341 45.0509L24.937 45.848L29.5174 50.4283Z" fill="white"/>
<path fill-rule="evenodd" clip-rule="evenodd" d="M110.116 107.58C110.245 107.447 110.347 107.29 110.415 107.117C110.483 106.944 110.516 106.76 110.511 106.574C110.507 106.389 110.466 106.206 110.391 106.036C110.316 105.867 110.207 105.714 110.072 105.586C109.217 104.776 108.145 104.233 106.986 104.022C105.828 103.812 104.633 103.944 103.548 104.402C102.463 104.859 101.535 105.623 100.877 106.6C100.22 107.577 99.8612 108.725 99.8453 109.902C99.8612 111.08 100.22 112.227 100.877 113.204C101.535 114.181 102.463 114.945 103.548 115.403C104.633 115.861 105.828 115.992 106.986 115.782C108.145 115.572 109.217 115.028 110.072 114.218C110.207 114.091 110.316 113.938 110.391 113.768C110.466 113.599 110.507 113.416 110.511 113.23C110.516 113.045 110.483 112.86 110.415 112.687C110.347 112.515 110.245 112.357 110.116 112.224C109.852 111.954 109.494 111.799 109.117 111.791C108.74 111.783 108.375 111.923 108.1 112.182C107.491 112.756 106.683 113.071 105.846 113.059C105.009 113.047 104.209 112.71 103.617 112.119C103.325 111.828 103.094 111.483 102.936 111.102C102.778 110.722 102.697 110.314 102.697 109.902C102.697 109.49 102.778 109.083 102.936 108.702C103.094 108.322 103.325 107.976 103.617 107.685C104.209 107.094 105.009 106.757 105.846 106.745C106.683 106.734 107.491 107.048 108.1 107.623C108.375 107.881 108.74 108.022 109.117 108.014C109.494 108.006 109.852 107.85 110.116 107.58V107.58ZM117.722 103.926C116.128 103.919 114.596 104.544 113.463 105.664C112.329 106.785 111.686 108.309 111.675 109.903C111.675 111.507 112.312 113.044 113.446 114.178C114.58 115.312 116.118 115.949 117.722 115.949C119.325 115.949 120.863 115.312 121.997 114.178C123.131 113.044 123.768 111.507 123.768 109.903C123.757 108.309 123.114 106.785 121.98 105.664C120.847 104.544 119.315 103.919 117.722 103.926ZM117.722 113.06C117.099 113.053 116.492 112.862 115.977 112.51C115.463 112.159 115.064 111.664 114.83 111.086C114.597 110.509 114.539 109.875 114.665 109.265C114.791 108.655 115.095 108.096 115.538 107.658C115.981 107.22 116.543 106.922 117.155 106.804C117.766 106.685 118.399 106.749 118.974 106.989C119.549 107.229 120.04 107.634 120.385 108.153C120.73 108.671 120.915 109.28 120.915 109.903C120.912 110.32 120.828 110.732 120.666 111.117C120.504 111.501 120.268 111.85 119.972 112.143C119.675 112.436 119.324 112.668 118.938 112.825C118.552 112.983 118.139 113.062 117.722 113.06ZM132.047 103.926C130.244 103.918 128.511 104.626 127.229 105.894C125.946 107.162 125.219 108.887 125.207 110.69C125.205 111.579 125.382 112.46 125.725 113.28C126.069 114.101 126.573 114.844 127.208 115.467C127.477 115.732 127.839 115.88 128.216 115.88C128.592 115.88 128.954 115.732 129.223 115.467C129.356 115.337 129.461 115.182 129.532 115.011C129.604 114.84 129.641 114.656 129.641 114.47C129.641 114.285 129.604 114.101 129.532 113.93C129.461 113.758 129.356 113.603 129.223 113.473C128.853 113.109 128.559 112.675 128.359 112.197C128.158 111.718 128.055 111.204 128.055 110.686C128.055 110.167 128.158 109.653 128.359 109.174C128.559 108.696 128.853 108.262 129.223 107.898C129.975 107.158 130.988 106.744 132.043 106.744C133.098 106.744 134.11 107.158 134.862 107.898C135.232 108.262 135.526 108.696 135.726 109.174C135.927 109.653 136.03 110.167 136.03 110.686C136.03 111.204 135.927 111.718 135.726 112.197C135.526 112.675 135.232 113.109 134.862 113.473C134.73 113.603 134.625 113.758 134.553 113.93C134.481 114.101 134.444 114.284 134.444 114.47C134.444 114.656 134.481 114.839 134.553 115.011C134.625 115.182 134.73 115.337 134.862 115.467C135.131 115.731 135.493 115.879 135.87 115.879C136.247 115.879 136.609 115.731 136.878 115.467C137.514 114.845 138.02 114.102 138.365 113.281C138.71 112.461 138.888 111.58 138.888 110.69C138.875 108.886 138.148 107.162 136.865 105.894C135.583 104.626 133.85 103.918 132.047 103.926ZM86.6875 105.895C87.9698 104.627 89.7025 103.919 91.5058 103.927C93.3091 103.919 95.0419 104.627 96.3242 105.895C97.6065 107.163 98.3337 108.887 98.3464 110.691C98.3464 111.581 98.1686 112.462 97.8234 113.282C97.4782 114.102 96.9726 114.845 96.3362 115.467C96.0674 115.732 95.7055 115.88 95.3286 115.88C94.9516 115.88 94.5897 115.732 94.3209 115.467C94.1886 115.337 94.0835 115.182 94.0118 115.011C93.9401 114.84 93.9031 114.656 93.9031 114.47C93.9031 114.285 93.9401 114.101 94.0118 113.93C94.0835 113.758 94.1886 113.603 94.3209 113.473C94.6909 113.109 94.9847 112.675 95.1853 112.197C95.3859 111.718 95.4892 111.204 95.4892 110.685C95.4892 110.166 95.3859 109.653 95.1853 109.174C94.9847 108.695 94.6909 108.262 94.3209 107.898C93.5688 107.158 92.5561 106.743 91.5012 106.743C90.4462 106.743 89.4335 107.158 88.6815 107.898C88.3115 108.262 88.0176 108.695 87.817 109.174C87.6165 109.653 87.5132 110.166 87.5132 110.685C87.5132 111.204 87.6165 111.718 87.817 112.197C88.0176 112.675 88.3115 113.109 88.6815 113.473C88.8138 113.603 88.9189 113.758 88.9906 113.93C89.0623 114.101 89.0993 114.285 89.0993 114.47C89.0993 114.656 89.0623 114.84 88.9906 115.011C88.9189 115.182 88.8138 115.337 88.6815 115.467C88.4126 115.732 88.0508 115.88 87.6738 115.88C87.2969 115.88 86.935 115.732 86.6661 115.467C86.0315 114.844 85.5275 114.101 85.184 113.281C84.8404 112.461 84.664 111.58 84.6653 110.691C84.678 108.887 85.4052 107.163 86.6875 105.895ZM107.316 109.895C107.32 110.673 106.686 111.307 105.898 111.312C105.111 111.316 104.47 110.689 104.465 109.911C104.461 109.132 105.096 108.498 105.883 108.494C106.67 108.489 107.312 109.117 107.316 109.895Z" fill="#0073CE"/>
<rect x="44.835" y="412.97" width="133.723" height="27.4304" rx="13.7152" fill="white"/>
<path d="M80.038 426.913C80.038 426.285 80.1782 425.724 80.4586 425.23C80.7451 424.731 81.1321 424.344 81.6198 424.069C82.1135 423.789 82.6652 423.649 83.2748 423.649C83.9879 423.649 84.6127 423.831 85.1492 424.197C85.6856 424.563 86.0605 425.069 86.2738 425.715H84.8017C84.6554 425.41 84.4482 425.182 84.18 425.029C83.9178 424.877 83.6131 424.801 83.2656 424.801C82.8938 424.801 82.5616 424.889 82.269 425.066C81.9825 425.237 81.7569 425.48 81.5924 425.797C81.4339 426.114 81.3546 426.486 81.3546 426.913C81.3546 427.333 81.4339 427.705 81.5924 428.028C81.7569 428.345 81.9825 428.592 82.269 428.769C82.5616 428.94 82.8938 429.025 83.2656 429.025C83.6131 429.025 83.9178 428.949 84.18 428.796C84.4482 428.638 84.6554 428.406 84.8017 428.101H86.2738C86.0605 428.754 85.6856 429.263 85.1492 429.628C84.6188 429.988 83.994 430.168 83.2748 430.168C82.6652 430.168 82.1135 430.031 81.6198 429.756C81.1321 429.476 80.7451 429.089 80.4586 428.595C80.1782 428.101 80.038 427.541 80.038 426.913ZM89.6165 430.195C89.1288 430.195 88.6899 430.089 88.2998 429.875C87.9097 429.656 87.6018 429.348 87.3763 428.952C87.1569 428.556 87.0471 428.098 87.0471 427.58C87.0471 427.062 87.1599 426.605 87.3855 426.209C87.6171 425.813 87.931 425.508 88.3272 425.294C88.7234 425.075 89.1654 424.965 89.653 424.965C90.1407 424.965 90.5826 425.075 90.9788 425.294C91.375 425.508 91.6859 425.813 91.9115 426.209C92.1431 426.605 92.2589 427.062 92.2589 427.58C92.2589 428.098 92.14 428.556 91.9023 428.952C91.6707 429.348 91.3537 429.656 90.9514 429.875C90.5552 430.089 90.1102 430.195 89.6165 430.195ZM89.6165 429.08C89.8481 429.08 90.0645 429.025 90.2656 428.915C90.4729 428.799 90.6375 428.629 90.7594 428.403C90.8813 428.178 90.9423 427.903 90.9423 427.58C90.9423 427.099 90.8142 426.73 90.5582 426.474C90.3083 426.212 90.0005 426.081 89.6347 426.081C89.269 426.081 88.9612 426.212 88.7113 426.474C88.4674 426.73 88.3455 427.099 88.3455 427.58C88.3455 428.062 88.4644 428.434 88.7021 428.696C88.9459 428.952 89.2507 429.08 89.6165 429.08ZM99.4886 424.974C100.11 424.974 100.61 425.166 100.988 425.55C101.372 425.928 101.564 426.459 101.564 427.141V430.113H100.284V427.315C100.284 426.919 100.183 426.617 99.9823 426.41C99.7812 426.197 99.5069 426.09 99.1594 426.09C98.812 426.09 98.5346 426.197 98.3274 426.41C98.1262 426.617 98.0256 426.919 98.0256 427.315V430.113H96.7456V427.315C96.7456 426.919 96.645 426.617 96.4438 426.41C96.2427 426.197 95.9684 426.09 95.6209 426.09C95.2674 426.09 94.987 426.197 94.7797 426.41C94.5786 426.617 94.478 426.919 94.478 427.315V430.113H93.1979V425.048H94.478V425.66C94.6426 425.447 94.8529 425.279 95.1089 425.157C95.371 425.035 95.6575 424.974 95.9684 424.974C96.3646 424.974 96.7181 425.06 97.029 425.23C97.3399 425.395 97.5807 425.633 97.7513 425.944C97.9159 425.651 98.1537 425.416 98.4645 425.24C98.7815 425.063 99.1229 424.974 99.4886 424.974ZM104.059 425.779C104.224 425.547 104.449 425.355 104.736 425.203C105.028 425.045 105.36 424.965 105.732 424.965C106.165 424.965 106.555 425.072 106.903 425.285C107.256 425.499 107.533 425.803 107.735 426.2C107.942 426.59 108.046 427.044 108.046 427.562C108.046 428.08 107.942 428.54 107.735 428.943C107.533 429.339 107.256 429.647 106.903 429.866C106.555 430.086 106.165 430.195 105.732 430.195C105.36 430.195 105.031 430.119 104.745 429.967C104.464 429.814 104.236 429.622 104.059 429.391V432.527H102.779V425.048H104.059V425.779ZM106.738 427.562C106.738 427.257 106.674 426.995 106.546 426.776C106.424 426.55 106.259 426.379 106.052 426.264C105.851 426.148 105.632 426.09 105.394 426.09C105.162 426.09 104.943 426.151 104.736 426.273C104.534 426.389 104.37 426.559 104.242 426.785C104.12 427.01 104.059 427.276 104.059 427.58C104.059 427.885 104.12 428.15 104.242 428.376C104.37 428.601 104.534 428.775 104.736 428.897C104.943 429.013 105.162 429.071 105.394 429.071C105.632 429.071 105.851 429.01 106.052 428.888C106.259 428.766 106.424 428.592 106.546 428.367C106.674 428.141 106.738 427.873 106.738 427.562ZM108.647 427.562C108.647 427.05 108.747 426.596 108.948 426.2C109.156 425.803 109.433 425.499 109.78 425.285C110.134 425.072 110.527 424.965 110.96 424.965C111.338 424.965 111.667 425.041 111.947 425.194C112.234 425.346 112.462 425.538 112.633 425.77V425.048H113.922V430.113H112.633V429.372C112.469 429.61 112.24 429.808 111.947 429.967C111.661 430.119 111.329 430.195 110.951 430.195C110.524 430.195 110.134 430.086 109.78 429.866C109.433 429.647 109.156 429.339 108.948 428.943C108.747 428.54 108.647 428.08 108.647 427.562ZM112.633 427.58C112.633 427.269 112.572 427.004 112.45 426.785C112.328 426.559 112.164 426.389 111.956 426.273C111.749 426.151 111.527 426.09 111.289 426.09C111.051 426.09 110.832 426.148 110.631 426.264C110.43 426.379 110.265 426.55 110.137 426.776C110.015 426.995 109.954 427.257 109.954 427.562C109.954 427.867 110.015 428.135 110.137 428.367C110.265 428.592 110.43 428.766 110.631 428.888C110.838 429.01 111.057 429.071 111.289 429.071C111.527 429.071 111.749 429.013 111.956 428.897C112.164 428.775 112.328 428.604 112.45 428.385C112.572 428.159 112.633 427.891 112.633 427.58ZM116.453 425.834C116.617 425.566 116.831 425.355 117.093 425.203C117.361 425.051 117.666 424.974 118.007 424.974V426.319H117.669C117.266 426.319 116.962 426.413 116.754 426.602C116.553 426.791 116.453 427.12 116.453 427.589V430.113H115.173V425.048H116.453V425.834ZM120.36 426.099V428.55C120.36 428.72 120.399 428.845 120.478 428.924C120.564 428.998 120.704 429.034 120.899 429.034H121.493V430.113H120.689C119.61 430.113 119.07 429.589 119.07 428.54V426.099H118.467V425.048H119.07V423.795H120.36V425.048H121.493V426.099H120.36ZM123.063 424.444C122.838 424.444 122.649 424.374 122.496 424.234C122.35 424.088 122.277 423.908 122.277 423.694C122.277 423.481 122.35 423.304 122.496 423.164C122.649 423.018 122.838 422.945 123.063 422.945C123.289 422.945 123.475 423.018 123.621 423.164C123.773 423.304 123.85 423.481 123.85 423.694C123.85 423.908 123.773 424.088 123.621 424.234C123.475 424.374 123.289 424.444 123.063 424.444ZM123.694 425.048V430.113H122.414V425.048H123.694ZM126.239 423.347V430.113H124.959V423.347H126.239ZM130.356 424.974C130.74 424.974 131.082 425.06 131.381 425.23C131.679 425.395 131.911 425.642 132.075 425.971C132.246 426.294 132.331 426.684 132.331 427.141V430.113H131.051V427.315C131.051 426.913 130.951 426.605 130.75 426.392C130.548 426.172 130.274 426.062 129.927 426.062C129.573 426.062 129.293 426.172 129.086 426.392C128.884 426.605 128.784 426.913 128.784 427.315V430.113H127.504V423.347H128.784V425.678C128.948 425.459 129.168 425.288 129.442 425.166C129.716 425.038 130.021 424.974 130.356 424.974ZM133.22 427.562C133.22 427.05 133.32 426.596 133.521 426.2C133.729 425.803 134.006 425.499 134.353 425.285C134.707 425.072 135.1 424.965 135.533 424.965C135.911 424.965 136.24 425.041 136.52 425.194C136.807 425.346 137.035 425.538 137.206 425.77V425.048H138.495V430.113H137.206V429.372C137.042 429.61 136.813 429.808 136.52 429.967C136.234 430.119 135.902 430.195 135.524 430.195C135.097 430.195 134.707 430.086 134.353 429.866C134.006 429.647 133.729 429.339 133.521 428.943C133.32 428.54 133.22 428.08 133.22 427.562ZM137.206 427.58C137.206 427.269 137.145 427.004 137.023 426.785C136.901 426.559 136.737 426.389 136.53 426.273C136.322 426.151 136.1 426.09 135.862 426.09C135.624 426.09 135.405 426.148 135.204 426.264C135.003 426.379 134.838 426.55 134.71 426.776C134.588 426.995 134.527 427.257 134.527 427.562C134.527 427.867 134.588 428.135 134.71 428.367C134.838 428.592 135.003 428.766 135.204 428.888C135.411 429.01 135.63 429.071 135.862 429.071C136.1 429.071 136.322 429.013 136.53 428.897C136.737 428.775 136.901 428.604 137.023 428.385C137.145 428.159 137.206 427.891 137.206 427.58ZM141.026 425.834C141.19 425.566 141.404 425.355 141.666 425.203C141.934 425.051 142.239 424.974 142.58 424.974V426.319H142.242C141.839 426.319 141.535 426.413 141.327 426.602C141.126 426.791 141.026 427.12 141.026 427.589V430.113H139.746V425.048H141.026V425.834Z" fill="#01A5F0"/>
<path d="M62.8337 135.439C63.7896 135.439 64.6193 135.033 65.1694 134.384L64.5742 133.879C64.1593 134.366 63.5281 134.682 62.8337 134.682C61.526 134.682 60.4979 133.581 60.4979 132.256C60.4979 130.921 61.526 129.83 62.8337 129.83C63.5281 129.83 64.1593 130.145 64.5742 130.632L65.1694 130.127C64.6193 129.478 63.7896 129.072 62.8337 129.072C61.0751 129.072 59.6773 130.497 59.6773 132.256C59.6773 134.014 61.0751 135.439 62.8337 135.439ZM68.024 135.439C69.2235 135.439 70.2335 134.564 70.2335 133.23C70.2335 131.895 69.2235 131.047 68.024 131.047C66.8246 131.047 65.8236 131.895 65.8236 133.23C65.8236 134.564 66.8246 135.439 68.024 135.439ZM68.024 134.7C67.2575 134.7 66.6172 134.104 66.6172 133.23C66.6172 132.364 67.2575 131.787 68.024 131.787C68.7996 131.787 69.4489 132.364 69.4489 133.23C69.4489 134.104 68.7996 134.7 68.024 134.7ZM76.3219 131.047C75.8981 131.047 75.2307 131.174 74.852 131.922C74.6085 131.363 74.0764 131.047 73.4631 131.047C72.8679 131.047 72.3269 131.327 72.1104 131.778V131.138H71.3258V135.349H72.1104V133.067C72.1104 132.175 72.7056 131.805 73.3008 131.805C73.8599 131.805 74.2477 132.247 74.2477 132.959V135.349H75.0323V133.203L75.0413 133.239C74.9692 132.427 75.4201 131.796 76.1686 131.805C76.7818 131.805 77.1696 132.256 77.1696 132.959V135.349H77.9542V132.914C77.9542 131.733 77.377 131.047 76.3219 131.047ZM81.5424 131.047C80.9382 131.047 80.3249 131.318 80.0454 131.805V131.138H79.2608V137.396H80.0454V134.691C80.3249 135.187 80.9201 135.439 81.5514 135.439C82.7057 135.439 83.6527 134.582 83.6527 133.248C83.6527 131.922 82.6967 131.047 81.5424 131.047ZM81.4703 134.7C80.7849 134.7 80.0454 134.168 80.0454 133.257C80.0454 132.355 80.7217 131.787 81.4703 131.787C82.2458 131.787 82.8591 132.418 82.8591 133.257C82.8591 134.104 82.2458 134.7 81.4703 134.7ZM86.7224 131.047C86.1633 131.047 85.7575 131.354 85.5411 132.093V131.138H84.7475V135.349H85.5411V133.807C85.5411 132.698 85.8747 131.805 86.7134 131.805C86.8757 131.805 87.1012 131.841 87.3267 131.949L87.4529 131.21C87.3267 131.128 87.02 131.047 86.7224 131.047ZM90.0235 135.439C91.2229 135.439 92.233 134.564 92.233 133.23C92.233 131.895 91.2229 131.047 90.0235 131.047C88.8241 131.047 87.8231 131.895 87.8231 133.23C87.8231 134.564 88.8241 135.439 90.0235 135.439ZM90.0235 134.7C89.257 134.7 88.6167 134.104 88.6167 133.23C88.6167 132.364 89.257 131.787 90.0235 131.787C90.7991 131.787 91.4484 132.364 91.4484 133.23C91.4484 134.104 90.7991 134.7 90.0235 134.7ZM96.0964 131.138L94.8068 134.348L93.5082 131.138H92.6695L94.419 135.349H95.1856L96.9441 131.138H96.0964ZM100.986 131.138V131.796C100.706 131.3 100.111 131.047 99.4799 131.047C98.3256 131.047 97.3787 131.904 97.3787 133.239C97.3787 134.564 98.3346 135.439 99.489 135.439C100.093 135.439 100.706 135.169 100.986 134.682V135.349H101.771V131.138H100.986ZM99.5521 134.7C98.7855 134.7 98.1723 134.068 98.1723 133.23C98.1723 132.382 98.7855 131.787 99.5521 131.787C100.246 131.787 100.986 132.319 100.986 133.23C100.986 134.132 100.31 134.7 99.5521 134.7ZM105.327 131.047C104.867 131.047 104.182 131.264 103.93 131.778V131.138H103.145V135.349H103.93V133.067C103.93 132.157 104.633 131.823 105.219 131.823C105.805 131.823 106.238 132.256 106.238 132.959V135.349H107.023V132.914C107.032 131.733 106.373 131.047 105.327 131.047ZM110.299 131.138H109.389V129.541H108.604V131.138H107.846V131.814H108.604V135.349H109.389V131.814H110.299V131.138ZM115.057 133.23C115.057 131.895 114.164 131.047 112.964 131.047C111.765 131.047 110.8 131.895 110.8 133.23C110.8 134.564 111.765 135.439 112.964 135.439C113.776 135.439 114.534 135.06 114.903 134.33L114.218 134.059C113.984 134.483 113.506 134.7 112.992 134.7C112.27 134.7 111.729 134.33 111.612 133.581H115.039C115.048 133.464 115.057 133.347 115.057 133.23ZM111.621 132.905C111.747 132.148 112.252 131.787 112.964 131.787C113.659 131.787 114.173 132.184 114.272 132.905H111.621ZM118.317 133.627H121.447V132.869H118.317V133.627ZM126.512 134.24L127.901 132.644C128.28 132.22 128.55 131.715 128.55 131.147C128.55 130.073 127.784 129.361 126.602 129.361C125.421 129.361 124.735 130.082 124.591 131.138L125.664 131.318C125.737 130.804 126.034 130.461 126.557 130.461C127.017 130.461 127.342 130.741 127.342 131.138C127.342 131.336 127.179 131.643 126.936 131.94L124.627 134.709V135.349H128.604V134.24H126.512ZM131.743 135.43C133.457 135.43 133.926 134.086 133.926 132.409C133.926 130.705 133.457 129.361 131.743 129.361C130.021 129.361 129.543 130.705 129.543 132.409C129.543 134.086 130.021 135.43 131.743 135.43ZM131.743 134.33C130.977 134.33 130.742 133.482 130.742 132.409C130.742 131.318 130.977 130.461 131.743 130.461C132.501 130.461 132.726 131.318 132.726 132.409C132.726 133.482 132.501 134.33 131.743 134.33ZM136.693 134.24L138.082 132.644C138.46 132.22 138.731 131.715 138.731 131.147C138.731 130.073 137.964 129.361 136.783 129.361C135.602 129.361 134.916 130.082 134.772 131.138L135.845 131.318C135.917 130.804 136.215 130.461 136.738 130.461C137.198 130.461 137.522 130.741 137.522 131.138C137.522 131.336 137.36 131.643 137.117 131.94L134.808 134.709V135.349H138.785V134.24H136.693ZM141.87 129.361C140.553 129.361 139.687 130.218 139.687 131.345C139.687 132.373 140.481 133.248 141.68 133.248C142.249 133.248 142.672 133.04 142.961 132.752C142.916 133.672 142.393 134.33 141.653 134.33C141.266 134.33 140.905 134.132 140.715 133.735L139.76 134.258C140.12 135.06 140.887 135.43 141.662 135.43C143.322 135.43 144.16 133.942 144.16 132.193C144.16 130.515 143.25 129.361 141.87 129.361ZM141.843 132.247C141.284 132.238 140.887 131.868 140.887 131.354C140.887 130.831 141.293 130.461 141.879 130.461C142.456 130.47 142.862 130.849 142.862 131.372C142.853 131.886 142.429 132.247 141.843 132.247ZM149.641 133.167H148.74V129.442H148.036L144.69 133.87V134.222H147.54V135.349H148.74V134.222H149.641V133.167ZM146.377 133.167L147.54 131.606V133.167H146.377ZM152.605 129.361C151.289 129.361 150.423 130.218 150.423 131.345C150.423 132.373 151.217 133.248 152.416 133.248C152.984 133.248 153.408 133.04 153.697 132.752C153.651 133.672 153.128 134.33 152.389 134.33C152.001 134.33 151.64 134.132 151.451 133.735L150.495 134.258C150.856 135.06 151.622 135.43 152.398 135.43C154.057 135.43 154.896 133.942 154.896 132.193C154.896 130.515 153.985 129.361 152.605 129.361ZM152.578 132.247C152.019 132.238 151.622 131.868 151.622 131.354C151.622 130.831 152.028 130.461 152.614 130.461C153.191 130.47 153.597 130.849 153.597 131.372C153.588 131.886 153.164 132.247 152.578 132.247ZM158.023 129.361L155.57 130.38V131.489L156.932 130.966V135.349H158.122V129.361H158.023ZM161.546 135.43C163.259 135.43 163.728 134.086 163.728 132.409C163.728 130.705 163.259 129.361 161.546 129.361C159.823 129.361 159.345 130.705 159.345 132.409C159.345 134.086 159.823 135.43 161.546 135.43ZM161.546 134.33C160.779 134.33 160.544 133.482 160.544 132.409C160.544 131.318 160.779 130.461 161.546 130.461C162.303 130.461 162.529 131.318 162.529 132.409C162.529 133.482 162.303 134.33 161.546 134.33Z" fill="#0073CE"/>
<path opacity="0.3" d="M37.6956 149.392H185.369" stroke="#855B35" stroke-width="0.751517"/>
<path opacity="0.3" d="M37.6956 251.598H185.369" stroke="#855B35" stroke-width="0.751517"/>
<path d="M79.1491 176.307H81.1256C82.6962 176.307 83.7859 175.315 83.7859 173.804C83.7859 172.294 82.6962 171.294 81.1256 171.294H79.1491V176.307ZM80.2162 175.367V172.234H81.1256C82.1551 172.234 82.6962 172.917 82.6962 173.804C82.6962 174.653 82.1176 175.367 81.1256 175.367H80.2162ZM84.5433 176.307H88.0904V175.382H85.6104V174.218H88.0378V173.301H85.6104V172.211H88.0904V171.294H84.5433V176.307ZM90.607 173.804C90.607 175.382 91.8094 176.404 93.2749 176.404C94.1842 176.404 94.8982 176.029 95.4092 175.458V173.541H93.0194V174.458H94.3571V175.067C94.1391 175.262 93.7333 175.45 93.2749 175.45C92.3656 175.45 91.7042 174.751 91.7042 173.804C91.7042 172.857 92.3656 172.158 93.2749 172.158C93.801 172.158 94.2293 172.436 94.4623 172.79L95.3491 172.309C94.9658 171.715 94.312 171.211 93.2749 171.211C91.8094 171.211 90.607 172.219 90.607 173.804ZM96.2564 176.307H97.3235V171.294H96.2564V176.307ZM98.3186 176.307H101.505V175.367H99.3858V171.294H98.3186V176.307ZM102.252 176.307H104.973C105.927 176.307 106.431 175.706 106.431 174.954C106.431 174.323 106.002 173.804 105.469 173.722C105.942 173.624 106.333 173.203 106.333 172.572C106.333 171.903 105.845 171.294 104.89 171.294H102.252V176.307ZM103.319 173.308V172.203H104.657C105.018 172.203 105.243 172.444 105.243 172.752C105.243 173.075 105.018 173.308 104.657 173.308H103.319ZM103.319 175.397V174.218H104.695C105.116 174.218 105.341 174.488 105.341 174.804C105.341 175.164 105.101 175.397 104.695 175.397H103.319ZM107.236 176.307H110.783V175.382H108.303V174.218H110.73V173.301H108.303V172.211H110.783V171.294H107.236V176.307ZM114.45 176.307H115.675L114.548 174.398C115.089 174.27 115.645 173.797 115.645 172.91C115.645 171.978 115.006 171.294 113.962 171.294H111.617V176.307H112.684V174.511H113.466L114.45 176.307ZM114.555 172.902C114.555 173.323 114.232 173.594 113.804 173.594H112.684V172.211H113.804C114.232 172.211 114.555 172.482 114.555 172.902ZM117.53 176.307H118.605V172.234H120.063V171.294H116.065V172.234H117.53V176.307ZM120.323 173.804C120.323 175.315 121.427 176.397 122.938 176.397C124.456 176.397 125.561 175.315 125.561 173.804C125.561 172.294 124.456 171.211 122.938 171.211C121.427 171.211 120.323 172.294 120.323 173.804ZM124.464 173.804C124.464 174.736 123.862 175.45 122.938 175.45C122.014 175.45 121.42 174.736 121.42 173.804C121.42 172.865 122.014 172.158 122.938 172.158C123.862 172.158 124.464 172.865 124.464 173.804ZM128.233 176.307H129.3V174.511H130.577C131.659 174.511 132.261 173.782 132.261 172.91C132.261 172.031 131.667 171.294 130.577 171.294H128.233V176.307ZM131.171 172.902C131.171 173.323 130.855 173.594 130.434 173.594H129.3V172.211H130.434C130.855 172.211 131.171 172.489 131.171 172.902ZM135.755 176.307H136.98L135.853 174.398C136.394 174.27 136.95 173.797 136.95 172.91C136.95 171.978 136.311 171.294 135.267 171.294H132.922V176.307H133.989V174.511H134.771L135.755 176.307ZM135.861 172.902C135.861 173.323 135.537 173.594 135.109 173.594H133.989V172.211H135.109C135.537 172.211 135.861 172.482 135.861 172.902ZM141.261 176.307H142.426L140.494 171.294H139.157L137.218 176.307H138.39L138.706 175.443H140.945L141.261 176.307ZM139.825 172.219L140.652 174.518H138.991L139.825 172.219ZM142.889 176.307H144.865C146.436 176.307 147.525 175.315 147.525 173.804C147.525 172.294 146.436 171.294 144.865 171.294H142.889V176.307ZM143.956 175.367V172.234H144.865C145.895 172.234 146.436 172.917 146.436 173.804C146.436 174.653 145.857 175.367 144.865 175.367H143.956ZM148.042 173.804C148.042 175.315 149.147 176.397 150.658 176.397C152.176 176.397 153.28 175.315 153.28 173.804C153.28 172.294 152.176 171.211 150.658 171.211C149.147 171.211 148.042 172.294 148.042 173.804ZM152.183 173.804C152.183 174.736 151.582 175.45 150.658 175.45C149.733 175.45 149.139 174.736 149.139 173.804C149.139 172.865 149.733 172.158 150.658 172.158C151.582 172.158 152.183 172.865 152.183 173.804Z" fill="#855B35"/>
<path d="M79.1491 278.513H80.2162V276.717H81.4938C82.576 276.717 83.1772 275.988 83.1772 275.116C83.1772 274.237 82.5835 273.5 81.4938 273.5H79.1491V278.513ZM82.0875 275.109C82.0875 275.53 81.7719 275.8 81.351 275.8H80.2162V274.417H81.351C81.7719 274.417 82.0875 274.695 82.0875 275.109ZM86.7905 278.513H87.9554L86.024 273.5H84.6863L82.7474 278.513H83.9197L84.2354 277.649H86.4749L86.7905 278.513ZM85.3551 274.425L86.1818 276.724H84.521L85.3551 274.425ZM91.2515 278.513H92.4765L91.3492 276.604C91.8903 276.476 92.4464 276.003 92.4464 275.116C92.4464 274.184 91.8076 273.5 90.763 273.5H88.4183V278.513H89.4854V276.717H90.267L91.2515 278.513ZM91.3567 275.109C91.3567 275.53 91.0335 275.8 90.6052 275.8H89.4854V274.417H90.6052C91.0335 274.417 91.3567 274.688 91.3567 275.109ZM96.7569 278.513H97.9218L95.9904 273.5H94.6527L92.7138 278.513H93.8861L94.2018 277.649H96.4413L96.7569 278.513ZM95.3215 274.425L96.1482 276.724H94.4874L95.3215 274.425ZM102.697 278.603C103.84 278.603 104.471 277.995 104.832 277.371L103.915 276.927C103.704 277.341 103.253 277.656 102.697 277.656C101.826 277.656 101.164 276.957 101.164 276.011C101.164 275.064 101.826 274.365 102.697 274.365C103.253 274.365 103.704 274.688 103.915 275.094L104.832 274.643C104.478 274.019 103.84 273.418 102.697 273.418C101.232 273.418 100.067 274.47 100.067 276.011C100.067 277.551 101.232 278.603 102.697 278.603ZM108.925 278.513H110.09L108.158 273.5H106.821L104.882 278.513H106.054L106.37 277.649H108.609L108.925 278.513ZM107.49 274.425L108.316 276.724H106.655L107.49 274.425ZM113.386 278.513H114.611L113.484 276.604C114.025 276.476 114.581 276.003 114.581 275.116C114.581 274.184 113.942 273.5 112.898 273.5H110.553V278.513H111.62V276.717H112.402L113.386 278.513ZM113.491 275.109C113.491 275.53 113.168 275.8 112.74 275.8H111.62V274.417H112.74C113.168 274.417 113.491 274.688 113.491 275.109ZM115.141 276.011C115.141 277.521 116.246 278.603 117.757 278.603C119.275 278.603 120.379 277.521 120.379 276.011C120.379 274.5 119.275 273.418 117.757 273.418C116.246 273.418 115.141 274.5 115.141 276.011ZM119.282 276.011C119.282 276.942 118.681 277.656 117.757 277.656C116.832 277.656 116.239 276.942 116.239 276.011C116.239 275.071 116.832 274.365 117.757 274.365C118.681 274.365 119.282 275.071 119.282 276.011ZM121.128 278.513H124.315V277.574H122.195V273.5H121.128V278.513ZM130.494 278.513H131.659L129.728 273.5H128.39L126.451 278.513H127.624L127.939 277.649H130.179L130.494 278.513ZM129.059 274.425L129.886 276.724H128.225L129.059 274.425ZM134.955 278.513H136.18L135.053 276.604C135.594 276.476 136.15 276.003 136.15 275.116C136.15 274.184 135.512 273.5 134.467 273.5H132.122V278.513H133.189V276.717H133.971L134.955 278.513ZM135.061 275.109C135.061 275.53 134.737 275.8 134.309 275.8H133.189V274.417H134.309C134.737 274.417 135.061 274.688 135.061 275.109ZM140.461 278.513H141.626L139.694 273.5H138.357L136.418 278.513H137.59L137.906 277.649H140.145L140.461 278.513ZM139.025 274.425L139.852 276.724H138.191L139.025 274.425ZM144.394 273.08L145.612 271.997H144.732L143.725 273.08H144.394ZM141.839 276.514C141.839 277.747 142.553 278.603 144.086 278.603C145.604 278.603 146.318 277.754 146.318 276.507V273.5H145.236V276.476C145.236 277.175 144.853 277.656 144.086 277.656C143.305 277.656 142.921 277.175 142.921 276.476V273.5H141.839V276.514ZM146.658 278.115C147.018 278.468 147.499 278.603 148.003 278.603C149.032 278.603 149.769 278.055 149.769 276.867V273.5H148.702V276.852C148.702 277.341 148.394 277.656 147.92 277.656C147.574 277.656 147.319 277.483 147.124 277.296L146.658 278.115ZM150.523 276.011C150.523 277.521 151.628 278.603 153.138 278.603C154.656 278.603 155.761 277.521 155.761 276.011C155.761 274.5 154.656 273.418 153.138 273.418C151.628 273.418 150.523 274.5 150.523 276.011ZM154.664 276.011C154.664 276.942 154.062 277.656 153.138 277.656C152.214 277.656 151.62 276.942 151.62 276.011C151.62 275.071 152.214 274.365 153.138 274.365C154.062 274.365 154.664 275.071 154.664 276.011Z" fill="#855B35"/>
<path d="M39.7773 203.113H40.5513L42.5729 198.1H41.859L40.168 202.429L38.4771 198.1H37.7632L39.7773 203.113ZM44.9982 203.113H45.5619V200.618C45.5619 199.738 44.9231 199.393 44.1565 199.393C43.5628 199.393 43.0969 199.588 42.7061 199.994L42.9691 200.385C43.2923 200.039 43.6455 199.881 44.0814 199.881C44.6075 199.881 44.9982 200.159 44.9982 200.648V201.302C44.7052 200.963 44.2918 200.806 43.7958 200.806C43.1796 200.806 42.5258 201.189 42.5258 202.001C42.5258 202.79 43.1796 203.203 43.7958 203.203C44.2843 203.203 44.6976 203.03 44.9982 202.699V203.113ZM44.9982 202.346C44.7803 202.647 44.397 202.797 43.9987 202.797C43.4727 202.797 43.1044 202.466 43.1044 202.008C43.1044 201.542 43.4727 201.211 43.9987 201.211C44.397 201.211 44.7803 201.362 44.9982 201.662V202.346ZM46.6917 203.113H47.2554V198.1H46.6917V203.113ZM49.9654 203.203C51.0701 203.203 51.7615 202.346 51.7615 201.294C51.7615 200.242 51.0701 199.393 49.9654 199.393C48.8607 199.393 48.1693 200.242 48.1693 201.294C48.1693 202.346 48.8607 203.203 49.9654 203.203ZM49.9654 202.699C49.1914 202.699 48.7555 202.038 48.7555 201.294C48.7555 200.558 49.1914 199.896 49.9654 199.896C50.7395 199.896 51.1678 200.558 51.1678 201.294C51.1678 202.038 50.7395 202.699 49.9654 202.699ZM52.6804 203.113H53.244V200.543C53.4094 200.25 53.8828 199.964 54.2285 199.964C54.3187 199.964 54.3863 199.971 54.454 199.986V199.408C53.958 199.408 53.5371 199.686 53.244 200.069V199.483H52.6804V203.113ZM38.2817 219.113H40.5664C41.4832 219.113 42.0168 218.564 42.0168 217.76C42.0168 217.159 41.5734 216.61 41.0398 216.528C41.4982 216.43 41.9191 216.009 41.9191 215.378C41.9191 214.626 41.3855 214.1 40.5137 214.1H38.2817V219.113ZM38.9055 216.272V214.656H40.4085C40.9722 214.656 41.2728 215.017 41.2728 215.468C41.2728 215.926 40.9722 216.272 40.4085 216.272H38.9055ZM38.9055 218.557V216.828H40.4386C41.0548 216.828 41.3705 217.234 41.3705 217.692C41.3705 218.226 41.0248 218.557 40.4386 218.557H38.9055ZM45.2551 219.113H45.8187V216.618C45.8187 215.738 45.18 215.393 44.4134 215.393C43.8197 215.393 43.3538 215.588 42.963 215.994L43.226 216.385C43.5492 216.039 43.9024 215.881 44.3383 215.881C44.8643 215.881 45.2551 216.159 45.2551 216.648V217.302C44.962 216.963 44.5487 216.806 44.0527 216.806C43.4364 216.806 42.7826 217.189 42.7826 218.001C42.7826 218.79 43.4364 219.203 44.0527 219.203C44.5412 219.203 44.9545 219.03 45.2551 218.699V219.113ZM45.2551 218.346C45.0372 218.647 44.6539 218.797 44.2556 218.797C43.7295 218.797 43.3613 218.466 43.3613 218.008C43.3613 217.542 43.7295 217.211 44.2556 217.211C44.6539 217.211 45.0372 217.362 45.2551 217.662V218.346ZM49.3985 219.113H49.9622V216.565C49.9622 215.776 49.5639 215.393 48.8049 215.393C48.2638 215.393 47.7678 215.708 47.5122 216.009V215.483H46.9486V219.113H47.5122V216.46C47.7227 216.167 48.1435 215.896 48.5869 215.896C49.0754 215.896 49.3985 216.099 49.3985 216.738V219.113ZM50.8774 217.294C50.8774 218.376 51.6064 219.203 52.6885 219.203C53.3499 219.203 53.7407 218.932 54.0187 218.572L53.643 218.226C53.4025 218.549 53.0944 218.699 52.7186 218.699C51.9445 218.699 51.4636 218.098 51.4636 217.294C51.4636 216.49 51.9445 215.896 52.7186 215.896C53.0944 215.896 53.4025 216.039 53.643 216.37L54.0187 216.024C53.7407 215.663 53.3499 215.393 52.6885 215.393C51.6064 215.393 50.8774 216.219 50.8774 217.294ZM56.3944 219.203C57.4991 219.203 58.1905 218.346 58.1905 217.294C58.1905 216.242 57.4991 215.393 56.3944 215.393C55.2897 215.393 54.5983 216.242 54.5983 217.294C54.5983 218.346 55.2897 219.203 56.3944 219.203ZM56.3944 218.699C55.6203 218.699 55.1845 218.038 55.1845 217.294C55.1845 216.558 55.6203 215.896 56.3944 215.896C57.1685 215.896 57.5968 216.558 57.5968 217.294C57.5968 218.038 57.1685 218.699 56.3944 218.699ZM58.9966 215.844C58.9966 216.069 59.1845 216.257 59.41 216.257C59.6354 216.257 59.8233 216.069 59.8233 215.844C59.8233 215.618 59.6354 215.43 59.41 215.43C59.1845 215.43 58.9966 215.618 58.9966 215.844ZM58.9966 218.775C58.9966 219 59.1845 219.188 59.41 219.188C59.6354 219.188 59.8233 219 59.8233 218.775C59.8233 218.549 59.6354 218.361 59.41 218.361C59.1845 218.361 58.9966 218.549 58.9966 218.775ZM41.8815 235.113H42.5729L40.5513 230.1H39.7773L37.7632 235.113H38.4546L38.898 234.001H41.4381L41.8815 235.113ZM40.168 230.656L41.2502 233.444H39.0783L40.168 230.656ZM43.1982 236.045C43.6265 236.466 44.0474 236.586 44.6636 236.586C45.5504 236.586 46.3921 236.21 46.3921 235.008V231.483H45.8285V232.032C45.5354 231.633 45.0995 231.393 44.611 231.393C43.6566 231.393 42.9953 232.114 42.9953 233.279C42.9953 234.451 43.6641 235.158 44.611 235.158C45.1221 235.158 45.5655 234.88 45.8285 234.512V235.03C45.8285 235.827 45.2649 236.12 44.6636 236.12C44.1451 236.12 43.7844 235.985 43.4838 235.624L43.1982 236.045ZM45.8285 234.068C45.6331 234.384 45.1972 234.662 44.7463 234.662C44.0173 234.662 43.5815 234.076 43.5815 233.279C43.5815 232.475 44.0173 231.896 44.7463 231.896C45.1972 231.896 45.6331 232.167 45.8285 232.482V234.068ZM49.7155 230.934H50.0988L49.3623 229.852H48.8212L48.1072 230.934H48.4905L49.0917 230.138L49.7155 230.934ZM47.3106 233.294C47.3106 234.429 48.0847 235.203 49.1594 235.203C49.7531 235.203 50.2415 235.008 50.6023 234.647L50.3317 234.279C50.0461 234.572 49.6253 234.737 49.212 234.737C48.4304 234.737 47.9494 234.166 47.9043 233.482H50.8428V233.339C50.8428 232.25 50.1964 231.393 49.0992 231.393C48.0621 231.393 47.3106 232.242 47.3106 233.294ZM49.0917 231.859C49.9184 231.859 50.2791 232.528 50.2866 233.069H47.9043C47.9344 232.513 48.3177 231.859 49.0917 231.859ZM54.2056 235.113H54.7693V232.565C54.7693 231.776 54.3709 231.393 53.6119 231.393C53.0708 231.393 52.5748 231.708 52.3193 232.009V231.483H51.7557V235.113H52.3193V232.46C52.5297 232.167 52.9506 231.896 53.394 231.896C53.8825 231.896 54.2056 232.099 54.2056 232.738V235.113ZM55.6845 233.294C55.6845 234.376 56.4134 235.203 57.4956 235.203C58.1569 235.203 58.5477 234.932 58.8258 234.572L58.45 234.226C58.2096 234.549 57.9014 234.699 57.5257 234.699C56.7516 234.699 56.2706 234.098 56.2706 233.294C56.2706 232.49 56.7516 231.896 57.5257 231.896C57.9014 231.896 58.2096 232.039 58.45 232.37L58.8258 232.024C58.5477 231.663 58.1569 231.393 57.4956 231.393C56.4134 231.393 55.6845 232.219 55.6845 233.294ZM59.8938 230.874C60.1043 230.874 60.2771 230.701 60.2771 230.491C60.2771 230.281 60.1043 230.115 59.8938 230.115C59.6909 230.115 59.5181 230.281 59.5181 230.491C59.5181 230.701 59.6909 230.874 59.8938 230.874ZM59.6158 235.113H60.1794V231.483H59.6158V235.113ZM63.5733 235.113H64.137V232.618C64.137 231.738 63.4982 231.393 62.7316 231.393C62.1379 231.393 61.672 231.588 61.2812 231.994L61.5442 232.385C61.8674 232.039 62.2206 231.881 62.6565 231.881C63.1825 231.881 63.5733 232.159 63.5733 232.648V233.302C63.2802 232.963 62.8669 232.806 62.3709 232.806C61.7547 232.806 61.1008 233.189 61.1008 234.001C61.1008 234.79 61.7547 235.203 62.3709 235.203C62.8594 235.203 63.2727 235.03 63.5733 234.699V235.113ZM63.5733 234.346C63.3554 234.647 62.9721 234.797 62.5738 234.797C62.0477 234.797 61.6795 234.466 61.6795 234.008C61.6795 233.542 62.0477 233.211 62.5738 233.211C62.9721 233.211 63.3554 233.362 63.5733 233.662V234.346ZM65.1541 231.844C65.1541 232.069 65.342 232.257 65.5674 232.257C65.7929 232.257 65.9808 232.069 65.9808 231.844C65.9808 231.618 65.7929 231.43 65.5674 231.43C65.342 231.43 65.1541 231.618 65.1541 231.844ZM65.1541 234.775C65.1541 235 65.342 235.188 65.5674 235.188C65.7929 235.188 65.9808 235 65.9808 234.775C65.9808 234.549 65.7929 234.361 65.5674 234.361C65.342 234.361 65.1541 234.549 65.1541 234.775Z" fill="#855B35"/>
<path d="M41.0097 304.282C41.9191 304.282 42.5203 303.861 42.9411 303.29L42.4075 302.997C42.122 303.425 41.6034 303.726 41.0097 303.726C39.9351 303.726 39.1009 302.877 39.1009 301.689C39.1009 300.494 39.9351 299.653 41.0097 299.653C41.6034 299.653 42.122 299.961 42.4075 300.382L42.9336 300.088C42.5353 299.525 41.9191 299.096 41.0097 299.096C39.5894 299.096 38.4546 300.149 38.4546 301.689C38.4546 303.23 39.5894 304.282 41.0097 304.282ZM43.7361 304.192H44.3598V302.2H45.7501C46.7421 302.2 47.3208 301.509 47.3208 300.69C47.3208 299.871 46.7572 299.179 45.7501 299.179H43.7361V304.192ZM46.6745 300.69C46.6745 301.253 46.2687 301.644 45.675 301.644H44.3598V299.735H45.675C46.2687 299.735 46.6745 300.126 46.6745 300.69ZM48.1468 304.192H48.7706V301.907H51.3784V301.351H48.7706V299.735H51.431V299.179H48.1468V304.192ZM52.1434 300.923C52.1434 301.148 52.3313 301.336 52.5568 301.336C52.7822 301.336 52.9701 301.148 52.9701 300.923C52.9701 300.697 52.7822 300.509 52.5568 300.509C52.3313 300.509 52.1434 300.697 52.1434 300.923ZM52.1434 303.854C52.1434 304.079 52.3313 304.267 52.5568 304.267C52.7822 304.267 52.9701 304.079 52.9701 303.854C52.9701 303.628 52.7822 303.44 52.5568 303.44C52.3313 303.44 52.1434 303.628 52.1434 303.854ZM38.6575 320.192H40.9421C41.8589 320.192 42.3925 319.643 42.3925 318.839C42.3925 318.238 41.9491 317.689 41.4155 317.607C41.874 317.509 42.2948 317.088 42.2948 316.457C42.2948 315.705 41.7612 315.179 40.8895 315.179H38.6575V320.192ZM39.2812 317.351V315.735H40.7843C41.3479 315.735 41.6485 316.096 41.6485 316.547C41.6485 317.005 41.3479 317.351 40.7843 317.351H39.2812ZM39.2812 319.636V317.907H40.8143C41.4306 317.907 41.7462 318.313 41.7462 318.771C41.7462 319.305 41.4005 319.636 40.8143 319.636H39.2812ZM45.6308 320.192H46.1945V317.697C46.1945 316.817 45.5557 316.472 44.7891 316.472C44.1954 316.472 43.7295 316.667 43.3387 317.073L43.6017 317.464C43.9249 317.118 44.2781 316.96 44.714 316.96C45.2401 316.96 45.6308 317.238 45.6308 317.727V318.381C45.3378 318.042 44.9244 317.885 44.4284 317.885C43.8122 317.885 43.1584 318.268 43.1584 319.08C43.1584 319.869 43.8122 320.282 44.4284 320.282C44.9169 320.282 45.3302 320.109 45.6308 319.778V320.192ZM45.6308 319.425C45.4129 319.726 45.0296 319.876 44.6313 319.876C44.1053 319.876 43.737 319.545 43.737 319.087C43.737 318.621 44.1053 318.29 44.6313 318.29C45.0296 318.29 45.4129 318.441 45.6308 318.741V319.425ZM49.7743 320.192H50.3379V317.644C50.3379 316.855 49.9396 316.472 49.1806 316.472C48.6395 316.472 48.1435 316.787 47.888 317.088V316.562H47.3243V320.192H47.888V317.539C48.0984 317.246 48.5192 316.975 48.9626 316.975C49.4511 316.975 49.7743 317.178 49.7743 317.817V320.192ZM51.2531 318.373C51.2531 319.455 51.9821 320.282 53.0643 320.282C53.7256 320.282 54.1164 320.011 54.3945 319.651L54.0187 319.305C53.7782 319.628 53.4701 319.778 53.0943 319.778C52.3203 319.778 51.8393 319.177 51.8393 318.373C51.8393 317.569 52.3203 316.975 53.0943 316.975C53.4701 316.975 53.7782 317.118 54.0187 317.449L54.3945 317.103C54.1164 316.742 53.7256 316.472 53.0643 316.472C51.9821 316.472 51.2531 317.298 51.2531 318.373ZM56.7701 320.282C57.8749 320.282 58.5663 319.425 58.5663 318.373C58.5663 317.321 57.8749 316.472 56.7701 316.472C55.6654 316.472 54.974 317.321 54.974 318.373C54.974 319.425 55.6654 320.282 56.7701 320.282ZM56.7701 319.778C55.9961 319.778 55.5602 319.117 55.5602 318.373C55.5602 317.637 55.9961 316.975 56.7701 316.975C57.5442 316.975 57.9726 317.637 57.9726 318.373C57.9726 319.117 57.5442 319.778 56.7701 319.778ZM59.3724 316.923C59.3724 317.148 59.5603 317.336 59.7857 317.336C60.0112 317.336 60.199 317.148 60.199 316.923C60.199 316.697 60.0112 316.509 59.7857 316.509C59.5603 316.509 59.3724 316.697 59.3724 316.923ZM59.3724 319.854C59.3724 320.079 59.5603 320.267 59.7857 320.267C60.0112 320.267 60.199 320.079 60.199 319.854C60.199 319.628 60.0112 319.44 59.7857 319.44C59.5603 319.44 59.3724 319.628 59.3724 319.854ZM42.2572 336.192H42.9486L40.9271 331.179H40.153L38.1389 336.192H38.8303L39.2737 335.08H41.8138L42.2572 336.192ZM40.5438 331.735L41.626 334.523H39.4541L40.5438 331.735ZM43.5739 337.124C44.0023 337.545 44.4231 337.665 45.0394 337.665C45.9262 337.665 46.7679 337.289 46.7679 336.087V332.562H46.2042V333.111C45.9111 332.712 45.4753 332.472 44.9868 332.472C44.0323 332.472 43.371 333.193 43.371 334.358C43.371 335.53 44.0399 336.237 44.9868 336.237C45.4978 336.237 45.9412 335.959 46.2042 335.591V336.109C46.2042 336.906 45.6406 337.199 45.0394 337.199C44.5208 337.199 44.1601 337.064 43.8595 336.703L43.5739 337.124ZM46.2042 335.147C46.0088 335.463 45.573 335.741 45.122 335.741C44.3931 335.741 43.9572 335.155 43.9572 334.358C43.9572 333.554 44.3931 332.975 45.122 332.975C45.573 332.975 46.0088 333.246 46.2042 333.561V335.147ZM50.0912 332.013H50.4745L49.738 330.931H49.1969L48.483 332.013H48.8662L49.4675 331.217L50.0912 332.013ZM47.6864 334.373C47.6864 335.508 48.4604 336.282 49.5351 336.282C50.1288 336.282 50.6173 336.087 50.978 335.726L50.7075 335.358C50.4219 335.651 50.001 335.816 49.5877 335.816C48.8061 335.816 48.3251 335.245 48.2801 334.561H51.2185V334.418C51.2185 333.328 50.5722 332.472 49.475 332.472C48.4379 332.472 47.6864 333.321 47.6864 334.373ZM49.4675 332.938C50.2941 332.938 50.6548 333.607 50.6624 334.148H48.2801C48.3101 333.592 48.6934 332.938 49.4675 332.938ZM54.5813 336.192H55.145V333.644C55.145 332.855 54.7467 332.472 53.9876 332.472C53.4466 332.472 52.9506 332.787 52.695 333.088V332.562H52.1314V336.192H52.695V333.539C52.9055 333.246 53.3263 332.975 53.7697 332.975C54.2582 332.975 54.5813 333.178 54.5813 333.817V336.192ZM56.0602 334.373C56.0602 335.455 56.7892 336.282 57.8713 336.282C58.5327 336.282 58.9235 336.011 59.2015 335.651L58.8258 335.305C58.5853 335.628 58.2772 335.778 57.9014 335.778C57.1273 335.778 56.6464 335.177 56.6464 334.373C56.6464 333.569 57.1273 332.975 57.9014 332.975C58.2772 332.975 58.5853 333.118 58.8258 333.449L59.2015 333.103C58.9235 332.742 58.5327 332.472 57.8713 332.472C56.7892 332.472 56.0602 333.298 56.0602 334.373ZM60.2696 331.953C60.48 331.953 60.6528 331.78 60.6528 331.57C60.6528 331.36 60.48 331.194 60.2696 331.194C60.0667 331.194 59.8938 331.36 59.8938 331.57C59.8938 331.78 60.0667 331.953 60.2696 331.953ZM59.9915 336.192H60.5551V332.562H59.9915V336.192ZM63.9491 336.192H64.5127V333.697C64.5127 332.817 63.8739 332.472 63.1074 332.472C62.5137 332.472 62.0477 332.667 61.6569 333.073L61.92 333.464C62.2431 333.118 62.5963 332.96 63.0322 332.96C63.5583 332.96 63.9491 333.238 63.9491 333.727V334.381C63.656 334.042 63.2426 333.885 62.7466 333.885C62.1304 333.885 61.4766 334.268 61.4766 335.08C61.4766 335.869 62.1304 336.282 62.7466 336.282C63.2351 336.282 63.6485 336.109 63.9491 335.778V336.192ZM63.9491 335.425C63.7311 335.726 63.3478 335.876 62.9495 335.876C62.4235 335.876 62.0552 335.545 62.0552 335.087C62.0552 334.621 62.4235 334.29 62.9495 334.29C63.3478 334.29 63.7311 334.441 63.9491 334.741V335.425ZM65.5298 332.923C65.5298 333.148 65.7177 333.336 65.9432 333.336C66.1686 333.336 66.3565 333.148 66.3565 332.923C66.3565 332.697 66.1686 332.509 65.9432 332.509C65.7177 332.509 65.5298 332.697 65.5298 332.923ZM65.5298 335.854C65.5298 336.079 65.7177 336.267 65.9432 336.267C66.1686 336.267 66.3565 336.079 66.3565 335.854C66.3565 335.628 66.1686 335.44 65.9432 335.44C65.7177 335.44 65.5298 335.628 65.5298 335.854Z" fill="#855B35"/>
<path d="M82.095 203.113H82.9668L81.6817 201.106C82.3205 201.024 82.9292 200.543 82.9292 199.641C82.9292 198.716 82.2754 198.1 81.321 198.1H79.2092V203.113H79.9607V201.181H80.9001L82.095 203.113ZM82.1551 199.641C82.1551 200.167 81.7644 200.52 81.2233 200.52H79.9607V198.762H81.2233C81.7644 198.762 82.1551 199.115 82.1551 199.641ZM87.4621 201.692C87.4621 200.693 86.6354 200.407 85.8538 200.197V198.731C86.2521 198.799 86.6204 198.979 86.906 199.28L87.3494 198.724C86.9736 198.341 86.4776 198.1 85.8538 198.04V197.341H85.3203V198.033C84.3884 198.1 83.7496 198.679 83.7496 199.453C83.7496 200.4 84.5537 200.678 85.3203 200.873V202.512C84.7566 202.444 84.3132 202.151 84.0201 201.828L83.5918 202.406C83.975 202.835 84.5462 203.143 85.3203 203.195V203.864H85.8538V203.188C86.9961 203.098 87.4621 202.414 87.4621 201.692ZM84.5237 199.4C84.5237 199.01 84.8393 198.739 85.3203 198.701V200.054C84.8694 199.926 84.5237 199.761 84.5237 199.4ZM85.8538 202.512V201.016C86.3273 201.159 86.6955 201.332 86.6955 201.76C86.6955 202.076 86.4701 202.444 85.8538 202.512ZM89.9304 202.384C90.2536 202.835 90.8999 203.203 91.7716 203.203C92.9064 203.203 93.6053 202.594 93.6053 201.753C93.6053 200.963 92.9139 200.573 92.4405 200.528C92.9365 200.437 93.5302 200.069 93.5302 199.37C93.5302 198.529 92.7937 198.025 91.7716 198.025C90.9675 198.025 90.3738 198.363 89.998 198.807L90.3963 199.273C90.7646 198.897 91.1779 198.694 91.704 198.694C92.2977 198.694 92.7787 198.964 92.7787 199.475C92.7787 199.994 92.2827 200.219 91.6739 200.219C91.4785 200.219 91.2155 200.219 91.1328 200.212V200.896C91.208 200.888 91.471 200.888 91.6739 200.888C92.4029 200.888 92.8538 201.121 92.8538 201.677C92.8538 202.203 92.4405 202.534 91.7491 202.534C91.1854 202.534 90.6669 202.279 90.3513 201.895L89.9304 202.384ZM94.4052 202.722C94.4052 202.978 94.6156 203.195 94.8711 203.195C95.1266 203.195 95.3446 202.978 95.3446 202.722C95.3446 202.466 95.1266 202.256 94.8711 202.256C94.6156 202.256 94.4052 202.466 94.4052 202.722ZM96.1658 203.113H99.6979V202.451H97.3607C98.736 201.392 99.6754 200.513 99.6754 199.536C99.6754 198.536 98.8262 198.025 97.9244 198.025C97.2255 198.025 96.5416 198.303 96.1282 198.822L96.5716 199.31C96.8798 198.942 97.3382 198.694 97.9319 198.694C98.4204 198.694 98.9089 198.949 98.9089 199.536C98.9089 200.325 98.0446 201.076 96.1658 202.519V203.113ZM100.561 200.61C100.561 201.85 101.132 203.203 102.522 203.203C103.913 203.203 104.484 201.85 104.484 200.61C104.484 199.37 103.913 198.025 102.522 198.025C101.132 198.025 100.561 199.37 100.561 200.61ZM103.717 200.61C103.717 201.587 103.409 202.534 102.522 202.534C101.636 202.534 101.327 201.587 101.327 200.61C101.327 199.633 101.636 198.694 102.522 198.694C103.409 198.694 103.717 199.633 103.717 200.61ZM105.177 200.61C105.177 201.85 105.748 203.203 107.139 203.203C108.529 203.203 109.1 201.85 109.1 200.61C109.1 199.37 108.529 198.025 107.139 198.025C105.748 198.025 105.177 199.37 105.177 200.61ZM108.333 200.61C108.333 201.587 108.025 202.534 107.139 202.534C106.252 202.534 105.944 201.587 105.944 200.61C105.944 199.633 106.252 198.694 107.139 198.694C108.025 198.694 108.333 199.633 108.333 200.61ZM109.979 204.09C110.362 203.819 110.64 203.368 110.64 202.88C110.64 202.482 110.392 202.256 110.114 202.256C109.859 202.256 109.656 202.459 109.656 202.714C109.656 202.962 109.829 203.143 110.061 203.143C110.099 203.143 110.159 203.128 110.174 203.128C110.137 203.376 109.904 203.676 109.663 203.827L109.979 204.09ZM111.371 200.61C111.371 201.85 111.942 203.203 113.333 203.203C114.723 203.203 115.294 201.85 115.294 200.61C115.294 199.37 114.723 198.025 113.333 198.025C111.942 198.025 111.371 199.37 111.371 200.61ZM114.528 200.61C114.528 201.587 114.219 202.534 113.333 202.534C112.446 202.534 112.138 201.587 112.138 200.61C112.138 199.633 112.446 198.694 113.333 198.694C114.219 198.694 114.528 199.633 114.528 200.61ZM115.987 200.61C115.987 201.85 116.559 203.203 117.949 203.203C119.339 203.203 119.91 201.85 119.91 200.61C119.91 199.37 119.339 198.025 117.949 198.025C116.559 198.025 115.987 199.37 115.987 200.61ZM119.144 200.61C119.144 201.587 118.836 202.534 117.949 202.534C117.062 202.534 116.754 201.587 116.754 200.61C116.754 199.633 117.062 198.694 117.949 198.694C118.836 198.694 119.144 199.633 119.144 200.61ZM78.9988 216.618C78.9988 217.993 79.5624 219.203 80.9978 219.203C82.1025 219.203 82.8014 218.444 82.8014 217.542C82.8014 216.475 82.0424 215.934 81.1406 215.934C80.5244 215.934 79.9833 216.332 79.7653 216.67C79.7578 216.618 79.7578 216.565 79.7578 216.505C79.7578 215.573 80.2162 214.694 81.1256 214.694C81.6216 214.694 81.9147 214.882 82.1702 215.175L82.5384 214.604C82.2153 214.258 81.7568 214.025 81.1256 214.025C79.6902 214.025 78.9988 215.212 78.9988 216.618ZM82.0424 217.565C82.0424 218.008 81.6817 218.534 80.9602 218.534C80.1411 218.534 79.833 217.835 79.7728 217.249C80.0359 216.851 80.4868 216.58 80.9527 216.58C81.5464 216.58 82.0424 216.896 82.0424 217.565ZM83.5883 218.414C83.9791 218.902 84.5503 219.203 85.407 219.203C86.4666 219.203 87.2482 218.557 87.2482 217.527C87.2482 216.498 86.4892 215.919 85.6475 215.919C85.159 215.919 84.7381 216.122 84.4976 216.362V214.762H86.9175V214.1H83.7461V216.851L84.2872 217.024C84.6179 216.708 84.9786 216.573 85.4145 216.573C86.0608 216.573 86.4892 216.956 86.4892 217.557C86.4892 218.106 86.0533 218.534 85.3995 218.534C84.8133 218.534 84.3624 218.309 84.0317 217.903L83.5883 218.414ZM88.0578 218.414C88.4486 218.902 89.0197 219.203 89.8764 219.203C90.9361 219.203 91.7177 218.557 91.7177 217.527C91.7177 216.498 90.9586 215.919 90.1169 215.919C89.6284 215.919 89.2076 216.122 88.9671 216.362V214.762H91.387V214.1H88.2156V216.851L88.7567 217.024C89.0874 216.708 89.4481 216.573 89.884 216.573C90.5303 216.573 90.9586 216.956 90.9586 217.557C90.9586 218.106 90.5228 218.534 89.8689 218.534C89.2828 218.534 88.8318 218.309 88.5012 217.903L88.0578 218.414ZM96.1693 217.587H97.9729V217.001H96.1693V217.587ZM100.691 219.113H103.103C104.027 219.113 104.553 218.549 104.553 217.76C104.553 217.151 104.117 216.61 103.584 216.528C104.042 216.43 104.456 216.009 104.456 215.378C104.456 214.649 103.937 214.1 103.043 214.1H100.691V219.113ZM101.442 216.227V214.762H102.9C103.404 214.762 103.682 215.085 103.682 215.498C103.682 215.911 103.404 216.227 102.9 216.227H101.442ZM101.442 218.451V216.888H102.938C103.494 216.888 103.779 217.249 103.779 217.662C103.779 218.151 103.464 218.451 102.938 218.451H101.442ZM107.707 219.113H108.384V216.663C108.384 215.738 107.715 215.393 106.926 215.393C106.34 215.393 105.844 215.588 105.438 215.986L105.731 216.452C106.054 216.129 106.407 215.971 106.821 215.971C107.339 215.971 107.707 216.242 107.707 216.693V217.294C107.429 216.971 107.009 216.813 106.52 216.813C105.911 216.813 105.257 217.174 105.257 218.001C105.257 218.797 105.919 219.203 106.52 219.203C107.009 219.203 107.422 219.03 107.707 218.714V219.113ZM107.707 218.316C107.505 218.587 107.151 218.73 106.776 218.73C106.287 218.73 105.941 218.436 105.941 218.008C105.941 217.58 106.287 217.287 106.776 217.287C107.151 217.287 107.505 217.429 107.707 217.7V218.316ZM111.918 219.113H112.594V216.565C112.594 215.799 112.196 215.393 111.429 215.393C110.865 215.393 110.385 215.701 110.144 215.994V215.483H109.468V219.113H110.144V216.52C110.339 216.25 110.723 215.994 111.144 215.994C111.609 215.994 111.918 216.189 111.918 216.791V219.113ZM113.44 217.294C113.44 218.384 114.192 219.203 115.289 219.203C115.973 219.203 116.386 218.917 116.649 218.564L116.198 218.151C115.98 218.451 115.687 218.602 115.319 218.602C114.605 218.602 114.147 218.046 114.147 217.294C114.147 216.543 114.605 215.994 115.319 215.994C115.687 215.994 115.98 216.137 116.198 216.445L116.649 216.032C116.386 215.678 115.973 215.393 115.289 215.393C114.192 215.393 113.44 216.204 113.44 217.294ZM119.002 219.203C120.137 219.203 120.836 218.346 120.836 217.294C120.836 216.25 120.137 215.393 119.002 215.393C117.875 215.393 117.168 216.25 117.168 217.294C117.168 218.346 117.875 219.203 119.002 219.203ZM119.002 218.602C118.281 218.602 117.875 217.986 117.875 217.294C117.875 216.61 118.281 215.994 119.002 215.994C119.731 215.994 120.129 216.61 120.129 217.294C120.129 217.986 119.731 218.602 119.002 218.602ZM125.12 219.113H126.059L128.051 214.1H127.194L125.586 218.294L123.985 214.1H123.128L125.12 219.113ZM129.798 219.203C130.933 219.203 131.631 218.346 131.631 217.294C131.631 216.25 130.933 215.393 129.798 215.393C128.671 215.393 127.964 216.25 127.964 217.294C127.964 218.346 128.671 219.203 129.798 219.203ZM129.798 218.602C129.076 218.602 128.671 217.986 128.671 217.294C128.671 216.61 129.076 215.994 129.798 215.994C130.527 215.994 130.925 216.61 130.925 217.294C130.925 217.986 130.527 218.602 129.798 218.602ZM133.49 219.203C133.843 219.203 134.053 219.105 134.196 218.97L134.023 218.459C133.956 218.534 133.813 218.602 133.655 218.602C133.422 218.602 133.302 218.414 133.302 218.158V216.077H134.038V215.483H133.302V214.491H132.625V215.483H132.024V216.077H132.625V218.309C132.625 218.88 132.919 219.203 133.49 219.203ZM136.396 219.203C137.53 219.203 138.229 218.346 138.229 217.294C138.229 216.25 137.53 215.393 136.396 215.393C135.268 215.393 134.562 216.25 134.562 217.294C134.562 218.346 135.268 219.203 136.396 219.203ZM136.396 218.602C135.674 218.602 135.268 217.986 135.268 217.294C135.268 216.61 135.674 215.994 136.396 215.994C137.125 215.994 137.523 216.61 137.523 217.294C137.523 217.986 137.125 218.602 136.396 218.602ZM139.088 219.113H139.764V216.588C139.922 216.317 140.381 216.062 140.719 216.062C140.809 216.062 140.884 216.069 140.952 216.084V215.4C140.471 215.4 140.042 215.678 139.764 216.039V215.483H139.088V219.113ZM143.867 219.113H144.543V216.663C144.543 215.738 143.874 215.393 143.085 215.393C142.499 215.393 142.003 215.588 141.597 215.986L141.89 216.452C142.213 216.129 142.567 215.971 142.98 215.971C143.499 215.971 143.867 216.242 143.867 216.693V217.294C143.589 216.971 143.168 216.813 142.679 216.813C142.071 216.813 141.417 217.174 141.417 218.001C141.417 218.797 142.078 219.203 142.679 219.203C143.168 219.203 143.581 219.03 143.867 218.714V219.113ZM143.867 218.316C143.664 218.587 143.311 218.73 142.935 218.73C142.446 218.73 142.101 218.436 142.101 218.008C142.101 217.58 142.446 217.287 142.935 217.287C143.311 217.287 143.664 217.429 143.867 217.7V218.316ZM148.077 219.113H148.753V216.565C148.753 215.799 148.355 215.393 147.589 215.393C147.025 215.393 146.544 215.701 146.303 215.994V215.483H145.627V219.113H146.303V216.52C146.499 216.25 146.882 215.994 147.303 215.994C147.769 215.994 148.077 216.189 148.077 216.791V219.113ZM150.825 219.203C151.178 219.203 151.388 219.105 151.531 218.97L151.358 218.459C151.29 218.534 151.148 218.602 150.99 218.602C150.757 218.602 150.637 218.414 150.637 218.158V216.077H151.373V215.483H150.637V214.491H149.96V215.483H149.359V216.077H149.96V218.309C149.96 218.88 150.253 219.203 150.825 219.203ZM152.453 214.874C152.693 214.874 152.889 214.686 152.889 214.446C152.889 214.205 152.693 214.01 152.453 214.01C152.22 214.01 152.017 214.205 152.017 214.446C152.017 214.686 152.22 214.874 152.453 214.874ZM152.122 219.113H152.798V215.483H152.122V219.113ZM158.288 219.113H158.964V216.49C158.964 215.761 158.603 215.393 157.934 215.393C157.401 215.393 156.92 215.731 156.709 216.069C156.597 215.678 156.273 215.393 155.725 215.393C155.184 215.393 154.703 215.769 154.553 215.994V215.483H153.876V219.113H154.553V216.52C154.733 216.257 155.086 215.994 155.439 215.994C155.898 215.994 156.078 216.272 156.078 216.693V219.113H156.754V216.513C156.927 216.25 157.288 215.994 157.656 215.994C158.1 215.994 158.288 216.272 158.288 216.693V219.113ZM81.569 235.203C82.5534 235.203 83.1622 234.73 83.5605 234.143L82.9217 233.805C82.6587 234.226 82.1627 234.534 81.569 234.534C80.5544 234.534 79.7728 233.73 79.7728 232.61C79.7728 231.483 80.5544 230.686 81.569 230.686C82.1627 230.686 82.6587 230.994 82.9217 231.415L83.5605 231.077C83.1697 230.491 82.5534 230.018 81.569 230.018C80.1411 230.018 78.9988 231.07 78.9988 232.61C78.9988 234.151 80.1411 235.203 81.569 235.203ZM85.903 235.203C87.0378 235.203 87.7367 234.346 87.7367 233.294C87.7367 232.25 87.0378 231.393 85.903 231.393C84.7758 231.393 84.0693 232.25 84.0693 233.294C84.0693 234.346 84.7758 235.203 85.903 235.203ZM85.903 234.602C85.1816 234.602 84.7758 233.986 84.7758 233.294C84.7758 232.61 85.1816 231.994 85.903 231.994C86.632 231.994 87.0303 232.61 87.0303 233.294C87.0303 233.986 86.632 234.602 85.903 234.602ZM91.0454 235.113H91.7218V232.565C91.7218 231.799 91.3235 231.393 90.5569 231.393C89.9933 231.393 89.5123 231.701 89.2718 231.994V231.483H88.5955V235.113H89.2718V232.52C89.4672 232.25 89.8505 231.994 90.2713 231.994C90.7373 231.994 91.0454 232.189 91.0454 232.791V235.113ZM93.7929 235.203C94.1461 235.203 94.3565 235.105 94.4993 234.97L94.3265 234.459C94.2588 234.534 94.1161 234.602 93.9582 234.602C93.7253 234.602 93.605 234.414 93.605 234.158V232.077H94.3415V231.483H93.605V230.491H92.9287V231.483H92.3275V232.077H92.9287V234.309C92.9287 234.88 93.2218 235.203 93.7929 235.203ZM97.33 235.113H98.0064V232.663C98.0064 231.738 97.3375 231.393 96.5484 231.393C95.9623 231.393 95.4663 231.588 95.0604 231.986L95.3535 232.452C95.6767 232.129 96.0299 231.971 96.4432 231.971C96.9618 231.971 97.33 232.242 97.33 232.693V233.294C97.052 232.971 96.6311 232.813 96.1426 232.813C95.5339 232.813 94.8801 233.174 94.8801 234.001C94.8801 234.797 95.5414 235.203 96.1426 235.203C96.6311 235.203 97.0444 235.03 97.33 234.714V235.113ZM97.33 234.316C97.1271 234.587 96.7739 234.73 96.3981 234.73C95.9097 234.73 95.564 234.436 95.564 234.008C95.564 233.58 95.9097 233.287 96.3981 233.287C96.7739 233.287 97.1271 233.429 97.33 233.7V234.316ZM98.97 231.904C98.97 232.152 99.1805 232.37 99.436 232.37C99.6915 232.37 99.9094 232.152 99.9094 231.904C99.9094 231.648 99.6915 231.43 99.436 231.43C99.1805 231.43 98.97 231.648 98.97 231.904ZM98.97 234.722C98.97 234.978 99.1805 235.195 99.436 235.195C99.6915 235.195 99.9094 234.978 99.9094 234.722C99.9094 234.466 99.6915 234.256 99.436 234.256C99.1805 234.256 98.97 234.466 98.97 234.722ZM102.623 232.61C102.623 233.85 103.194 235.203 104.585 235.203C105.975 235.203 106.546 233.85 106.546 232.61C106.546 231.37 105.975 230.025 104.585 230.025C103.194 230.025 102.623 231.37 102.623 232.61ZM105.779 232.61C105.779 233.587 105.471 234.534 104.585 234.534C103.698 234.534 103.39 233.587 103.39 232.61C103.39 231.633 103.698 230.694 104.585 230.694C105.471 230.694 105.779 231.633 105.779 232.61ZM107.239 232.61C107.239 233.85 107.811 235.203 109.201 235.203C110.591 235.203 111.162 233.85 111.162 232.61C111.162 231.37 110.591 230.025 109.201 230.025C107.811 230.025 107.239 231.37 107.239 232.61ZM110.396 232.61C110.396 233.587 110.088 234.534 109.201 234.534C108.314 234.534 108.006 233.587 108.006 232.61C108.006 231.633 108.314 230.694 109.201 230.694C110.088 230.694 110.396 231.633 110.396 232.61ZM111.856 232.61C111.856 233.85 112.427 235.203 113.817 235.203C115.207 235.203 115.779 233.85 115.779 232.61C115.779 231.37 115.207 230.025 113.817 230.025C112.427 230.025 111.856 231.37 111.856 232.61ZM115.012 232.61C115.012 233.587 114.704 234.534 113.817 234.534C112.93 234.534 112.622 233.587 112.622 232.61C112.622 231.633 112.93 230.694 113.817 230.694C114.704 230.694 115.012 231.633 115.012 232.61ZM116.472 232.61C116.472 233.85 117.043 235.203 118.433 235.203C119.824 235.203 120.395 233.85 120.395 232.61C120.395 231.37 119.824 230.025 118.433 230.025C117.043 230.025 116.472 231.37 116.472 232.61ZM119.628 232.61C119.628 233.587 119.32 234.534 118.433 234.534C117.547 234.534 117.238 233.587 117.238 232.61C117.238 231.633 117.547 230.694 118.433 230.694C119.32 230.694 119.628 231.633 119.628 232.61ZM121.088 232.61C121.088 233.85 121.659 235.203 123.05 235.203C124.44 235.203 125.011 233.85 125.011 232.61C125.011 231.37 124.44 230.025 123.05 230.025C121.659 230.025 121.088 231.37 121.088 232.61ZM124.244 232.61C124.244 233.587 123.936 234.534 123.05 234.534C122.163 234.534 121.855 233.587 121.855 232.61C121.855 231.633 122.163 230.694 123.05 230.694C123.936 230.694 124.244 231.633 124.244 232.61ZM125.584 233.587H127.388V233.001H125.584V233.587ZM127.957 232.61C127.957 233.85 128.529 235.203 129.919 235.203C131.309 235.203 131.88 233.85 131.88 232.61C131.88 231.37 131.309 230.025 129.919 230.025C128.529 230.025 127.957 231.37 127.957 232.61ZM131.114 232.61C131.114 233.587 130.806 234.534 129.919 234.534C129.032 234.534 128.724 233.587 128.724 232.61C128.724 231.633 129.032 230.694 129.919 230.694C130.806 230.694 131.114 231.633 131.114 232.61Z" fill="#855B35"/>
<path d="M78.9988 303.192C78.9988 304.432 79.5699 305.785 80.9602 305.785C82.3505 305.785 82.9217 304.432 82.9217 303.192C82.9217 301.952 82.3505 300.607 80.9602 300.607C79.5699 300.607 78.9988 301.952 78.9988 303.192ZM82.1551 303.192C82.1551 304.169 81.847 305.116 80.9602 305.116C80.0734 305.116 79.7653 304.169 79.7653 303.192C79.7653 302.215 80.0734 301.276 80.9602 301.276C81.847 301.276 82.1551 302.215 82.1551 303.192ZM83.615 303.192C83.615 304.432 84.1862 305.785 85.5765 305.785C86.9668 305.785 87.5379 304.432 87.5379 303.192C87.5379 301.952 86.9668 300.607 85.5765 300.607C84.1862 300.607 83.615 301.952 83.615 303.192ZM86.7714 303.192C86.7714 304.169 86.4633 305.116 85.5765 305.116C84.6897 305.116 84.3816 304.169 84.3816 303.192C84.3816 302.215 84.6897 301.276 85.5765 301.276C86.4633 301.276 86.7714 302.215 86.7714 303.192ZM88.0936 305.304C88.0936 305.56 88.304 305.777 88.5595 305.777C88.815 305.777 89.033 305.56 89.033 305.304C89.033 305.049 88.815 304.838 88.5595 304.838C88.304 304.838 88.0936 305.049 88.0936 305.304ZM89.8092 303.192C89.8092 304.432 90.3803 305.785 91.7706 305.785C93.1609 305.785 93.7321 304.432 93.7321 303.192C93.7321 301.952 93.1609 300.607 91.7706 300.607C90.3803 300.607 89.8092 301.952 89.8092 303.192ZM92.9655 303.192C92.9655 304.169 92.6574 305.116 91.7706 305.116C90.8838 305.116 90.5757 304.169 90.5757 303.192C90.5757 302.215 90.8838 301.276 91.7706 301.276C92.6574 301.276 92.9655 302.215 92.9655 303.192ZM94.4254 303.192C94.4254 304.432 94.9966 305.785 96.3869 305.785C97.7772 305.785 98.3483 304.432 98.3483 303.192C98.3483 301.952 97.7772 300.607 96.3869 300.607C94.9966 300.607 94.4254 301.952 94.4254 303.192ZM97.5818 303.192C97.5818 304.169 97.2737 305.116 96.3869 305.116C95.5001 305.116 95.192 304.169 95.192 303.192C95.192 302.215 95.5001 301.276 96.3869 301.276C97.2737 301.276 97.5818 302.215 97.5818 303.192ZM99.0417 303.192C99.0417 304.432 99.6128 305.785 101.003 305.785C102.393 305.785 102.965 304.432 102.965 303.192C102.965 301.952 102.393 300.607 101.003 300.607C99.6128 300.607 99.0417 301.952 99.0417 303.192ZM102.198 303.192C102.198 304.169 101.89 305.116 101.003 305.116C100.116 305.116 99.8082 304.169 99.8082 303.192C99.8082 302.215 100.116 301.276 101.003 301.276C101.89 301.276 102.198 302.215 102.198 303.192ZM103.52 305.304C103.52 305.56 103.731 305.777 103.986 305.777C104.242 305.777 104.46 305.56 104.46 305.304C104.46 305.049 104.242 304.838 103.986 304.838C103.731 304.838 103.52 305.049 103.52 305.304ZM105.236 303.192C105.236 304.432 105.807 305.785 107.197 305.785C108.588 305.785 109.159 304.432 109.159 303.192C109.159 301.952 108.588 300.607 107.197 300.607C105.807 300.607 105.236 301.952 105.236 303.192ZM108.392 303.192C108.392 304.169 108.084 305.116 107.197 305.116C106.31 305.116 106.002 304.169 106.002 303.192C106.002 302.215 106.31 301.276 107.197 301.276C108.084 301.276 108.392 302.215 108.392 303.192ZM109.852 303.192C109.852 304.432 110.423 305.785 111.814 305.785C113.204 305.785 113.775 304.432 113.775 303.192C113.775 301.952 113.204 300.607 111.814 300.607C110.423 300.607 109.852 301.952 109.852 303.192ZM113.008 303.192C113.008 304.169 112.7 305.116 111.814 305.116C110.927 305.116 110.619 304.169 110.619 303.192C110.619 302.215 110.927 301.276 111.814 301.276C112.7 301.276 113.008 302.215 113.008 303.192ZM114.468 303.192C114.468 304.432 115.039 305.785 116.43 305.785C117.82 305.785 118.391 304.432 118.391 303.192C118.391 301.952 117.82 300.607 116.43 300.607C115.039 300.607 114.468 301.952 114.468 303.192ZM117.625 303.192C117.625 304.169 117.317 305.116 116.43 305.116C115.543 305.116 115.235 304.169 115.235 303.192C115.235 302.215 115.543 301.276 116.43 301.276C117.317 301.276 117.625 302.215 117.625 303.192ZM118.739 305.845H119.257L121.038 300.532H120.52L118.739 305.845ZM121.382 303.192C121.382 304.432 121.953 305.785 123.343 305.785C124.733 305.785 125.305 304.432 125.305 303.192C125.305 301.952 124.733 300.607 123.343 300.607C121.953 300.607 121.382 301.952 121.382 303.192ZM124.538 303.192C124.538 304.169 124.23 305.116 123.343 305.116C122.456 305.116 122.148 304.169 122.148 303.192C122.148 302.215 122.456 301.276 123.343 301.276C124.23 301.276 124.538 302.215 124.538 303.192ZM125.998 303.192C125.998 304.432 126.569 305.785 127.959 305.785C129.35 305.785 129.921 304.432 129.921 303.192C129.921 301.952 129.35 300.607 127.959 300.607C126.569 300.607 125.998 301.952 125.998 303.192ZM129.154 303.192C129.154 304.169 128.846 305.116 127.959 305.116C127.073 305.116 126.764 304.169 126.764 303.192C126.764 302.215 127.073 301.276 127.959 301.276C128.846 301.276 129.154 302.215 129.154 303.192ZM130.614 303.192C130.614 304.432 131.185 305.785 132.576 305.785C133.966 305.785 134.537 304.432 134.537 303.192C134.537 301.952 133.966 300.607 132.576 300.607C131.185 300.607 130.614 301.952 130.614 303.192ZM133.771 303.192C133.771 304.169 133.462 305.116 132.576 305.116C131.689 305.116 131.381 304.169 131.381 303.192C131.381 302.215 131.689 301.276 132.576 301.276C133.462 301.276 133.771 302.215 133.771 303.192ZM136.275 305.695H137.027V300.682H136.365L135.02 302.057L135.463 302.516L136.275 301.667V305.695ZM137.811 304.169H139.615V303.583H137.811V304.169ZM140.184 303.192C140.184 304.432 140.755 305.785 142.146 305.785C143.536 305.785 144.107 304.432 144.107 303.192C144.107 301.952 143.536 300.607 142.146 300.607C140.755 300.607 140.184 301.952 140.184 303.192ZM143.341 303.192C143.341 304.169 143.033 305.116 142.146 305.116C141.259 305.116 140.951 304.169 140.951 303.192C140.951 302.215 141.259 301.276 142.146 301.276C143.033 301.276 143.341 302.215 143.341 303.192ZM144.801 303.192C144.801 304.432 145.372 305.785 146.762 305.785C148.152 305.785 148.723 304.432 148.723 303.192C148.723 301.952 148.152 300.607 146.762 300.607C145.372 300.607 144.801 301.952 144.801 303.192ZM147.957 303.192C147.957 304.169 147.649 305.116 146.762 305.116C145.875 305.116 145.567 304.169 145.567 303.192C145.567 302.215 145.875 301.276 146.762 301.276C147.649 301.276 147.957 302.215 147.957 303.192ZM78.9988 319.2C78.9988 320.575 79.5624 321.785 80.9978 321.785C82.1025 321.785 82.8014 321.026 82.8014 320.124C82.8014 319.057 82.0424 318.516 81.1406 318.516C80.5244 318.516 79.9833 318.914 79.7653 319.252C79.7578 319.2 79.7578 319.147 79.7578 319.087C79.7578 318.155 80.2162 317.276 81.1256 317.276C81.6216 317.276 81.9147 317.464 82.1702 317.757L82.5384 317.186C82.2153 316.84 81.7568 316.607 81.1256 316.607C79.6902 316.607 78.9988 317.794 78.9988 319.2ZM82.0424 320.147C82.0424 320.59 81.6817 321.116 80.9602 321.116C80.1411 321.116 79.833 320.417 79.7728 319.831C80.0359 319.433 80.4868 319.162 80.9527 319.162C81.5464 319.162 82.0424 319.478 82.0424 320.147ZM83.5883 320.996C83.9791 321.484 84.5503 321.785 85.407 321.785C86.4666 321.785 87.2482 321.139 87.2482 320.109C87.2482 319.08 86.4892 318.501 85.6475 318.501C85.159 318.501 84.7381 318.704 84.4976 318.944V317.344H86.9175V316.682H83.7461V319.433L84.2872 319.606C84.6179 319.29 84.9786 319.155 85.4145 319.155C86.0608 319.155 86.4892 319.538 86.4892 320.139C86.4892 320.688 86.0533 321.116 85.3995 321.116C84.8133 321.116 84.3624 320.891 84.0317 320.485L83.5883 320.996ZM88.0578 320.996C88.4486 321.484 89.0197 321.785 89.8764 321.785C90.9361 321.785 91.7177 321.139 91.7177 320.109C91.7177 319.08 90.9586 318.501 90.1169 318.501C89.6284 318.501 89.2076 318.704 88.9671 318.944V317.344H91.387V316.682H88.2156V319.433L88.7567 319.606C89.0874 319.29 89.4481 319.155 89.884 319.155C90.5303 319.155 90.9586 319.538 90.9586 320.139C90.9586 320.688 90.5228 321.116 89.8689 321.116C89.2828 321.116 88.8318 320.891 88.5012 320.485L88.0578 320.996ZM96.1693 320.169H97.9729V319.583H96.1693V320.169ZM100.691 321.695H103.103C104.027 321.695 104.553 321.131 104.553 320.342C104.553 319.733 104.117 319.192 103.584 319.11C104.042 319.012 104.456 318.591 104.456 317.96C104.456 317.231 103.937 316.682 103.043 316.682H100.691V321.695ZM101.442 318.809V317.344H102.9C103.404 317.344 103.682 317.667 103.682 318.08C103.682 318.493 103.404 318.809 102.9 318.809H101.442ZM101.442 321.033V319.47H102.938C103.494 319.47 103.779 319.831 103.779 320.244C103.779 320.733 103.464 321.033 102.938 321.033H101.442ZM107.707 321.695H108.384V319.245C108.384 318.321 107.715 317.975 106.926 317.975C106.34 317.975 105.844 318.17 105.438 318.569L105.731 319.034C106.054 318.711 106.407 318.553 106.821 318.553C107.339 318.553 107.707 318.824 107.707 319.275V319.876C107.429 319.553 107.009 319.395 106.52 319.395C105.911 319.395 105.257 319.756 105.257 320.583C105.257 321.379 105.919 321.785 106.52 321.785C107.009 321.785 107.422 321.612 107.707 321.297V321.695ZM107.707 320.898C107.505 321.169 107.151 321.312 106.776 321.312C106.287 321.312 105.941 321.018 105.941 320.59C105.941 320.162 106.287 319.869 106.776 319.869C107.151 319.869 107.505 320.011 107.707 320.282V320.898ZM111.918 321.695H112.594V319.147C112.594 318.381 112.196 317.975 111.429 317.975C110.865 317.975 110.385 318.283 110.144 318.576V318.065H109.468V321.695H110.144V319.102C110.339 318.832 110.723 318.576 111.144 318.576C111.609 318.576 111.918 318.771 111.918 319.373V321.695ZM113.44 319.876C113.44 320.966 114.192 321.785 115.289 321.785C115.973 321.785 116.386 321.499 116.649 321.146L116.198 320.733C115.98 321.033 115.687 321.184 115.319 321.184C114.605 321.184 114.147 320.628 114.147 319.876C114.147 319.125 114.605 318.576 115.319 318.576C115.687 318.576 115.98 318.719 116.198 319.027L116.649 318.614C116.386 318.26 115.973 317.975 115.289 317.975C114.192 317.975 113.44 318.786 113.44 319.876ZM119.002 321.785C120.137 321.785 120.836 320.928 120.836 319.876C120.836 318.832 120.137 317.975 119.002 317.975C117.875 317.975 117.168 318.832 117.168 319.876C117.168 320.928 117.875 321.785 119.002 321.785ZM119.002 321.184C118.281 321.184 117.875 320.568 117.875 319.876C117.875 319.192 118.281 318.576 119.002 318.576C119.731 318.576 120.129 319.192 120.129 319.876C120.129 320.568 119.731 321.184 119.002 321.184ZM125.12 321.695H126.059L128.051 316.682H127.194L125.586 320.876L123.985 316.682H123.128L125.12 321.695ZM129.798 321.785C130.933 321.785 131.631 320.928 131.631 319.876C131.631 318.832 130.933 317.975 129.798 317.975C128.671 317.975 127.964 318.832 127.964 319.876C127.964 320.928 128.671 321.785 129.798 321.785ZM129.798 321.184C129.076 321.184 128.671 320.568 128.671 319.876C128.671 319.192 129.076 318.576 129.798 318.576C130.527 318.576 130.925 319.192 130.925 319.876C130.925 320.568 130.527 321.184 129.798 321.184ZM133.49 321.785C133.843 321.785 134.053 321.687 134.196 321.552L134.023 321.041C133.956 321.116 133.813 321.184 133.655 321.184C133.422 321.184 133.302 320.996 133.302 320.74V318.659H134.038V318.065H133.302V317.073H132.625V318.065H132.024V318.659H132.625V320.891C132.625 321.462 132.919 321.785 133.49 321.785ZM136.396 321.785C137.53 321.785 138.229 320.928 138.229 319.876C138.229 318.832 137.53 317.975 136.396 317.975C135.268 317.975 134.562 318.832 134.562 319.876C134.562 320.928 135.268 321.785 136.396 321.785ZM136.396 321.184C135.674 321.184 135.268 320.568 135.268 319.876C135.268 319.192 135.674 318.576 136.396 318.576C137.125 318.576 137.523 319.192 137.523 319.876C137.523 320.568 137.125 321.184 136.396 321.184ZM139.088 321.695H139.764V319.17C139.922 318.899 140.381 318.644 140.719 318.644C140.809 318.644 140.884 318.651 140.952 318.666V317.982C140.471 317.982 140.042 318.26 139.764 318.621V318.065H139.088V321.695ZM143.867 321.695H144.543V319.245C144.543 318.321 143.874 317.975 143.085 317.975C142.499 317.975 142.003 318.17 141.597 318.569L141.89 319.034C142.213 318.711 142.567 318.553 142.98 318.553C143.499 318.553 143.867 318.824 143.867 319.275V319.876C143.589 319.553 143.168 319.395 142.679 319.395C142.071 319.395 141.417 319.756 141.417 320.583C141.417 321.379 142.078 321.785 142.679 321.785C143.168 321.785 143.581 321.612 143.867 321.297V321.695ZM143.867 320.898C143.664 321.169 143.311 321.312 142.935 321.312C142.446 321.312 142.101 321.018 142.101 320.59C142.101 320.162 142.446 319.869 142.935 319.869C143.311 319.869 143.664 320.011 143.867 320.282V320.898ZM148.077 321.695H148.753V319.147C148.753 318.381 148.355 317.975 147.589 317.975C147.025 317.975 146.544 318.283 146.303 318.576V318.065H145.627V321.695H146.303V319.102C146.499 318.832 146.882 318.576 147.303 318.576C147.769 318.576 148.077 318.771 148.077 319.373V321.695ZM150.825 321.785C151.178 321.785 151.388 321.687 151.531 321.552L151.358 321.041C151.29 321.116 151.148 321.184 150.99 321.184C150.757 321.184 150.637 320.996 150.637 320.74V318.659H151.373V318.065H150.637V317.073H149.96V318.065H149.359V318.659H149.96V320.891C149.96 321.462 150.253 321.785 150.825 321.785ZM152.453 317.456C152.693 317.456 152.889 317.268 152.889 317.028C152.889 316.787 152.693 316.592 152.453 316.592C152.22 316.592 152.017 316.787 152.017 317.028C152.017 317.268 152.22 317.456 152.453 317.456ZM152.122 321.695H152.798V318.065H152.122V321.695ZM158.288 321.695H158.964V319.072C158.964 318.343 158.603 317.975 157.934 317.975C157.401 317.975 156.92 318.313 156.709 318.651C156.597 318.26 156.273 317.975 155.725 317.975C155.184 317.975 154.703 318.351 154.553 318.576V318.065H153.876V321.695H154.553V319.102C154.733 318.839 155.086 318.576 155.439 318.576C155.898 318.576 156.078 318.854 156.078 319.275V321.695H156.754V319.095C156.927 318.832 157.288 318.576 157.656 318.576C158.1 318.576 158.288 318.854 158.288 319.275V321.695ZM81.569 337.785C82.5534 337.785 83.1622 337.312 83.5605 336.725L82.9217 336.387C82.6587 336.808 82.1627 337.116 81.569 337.116C80.5544 337.116 79.7728 336.312 79.7728 335.192C79.7728 334.065 80.5544 333.268 81.569 333.268C82.1627 333.268 82.6587 333.577 82.9217 333.997L83.5605 333.659C83.1697 333.073 82.5534 332.6 81.569 332.6C80.1411 332.6 78.9988 333.652 78.9988 335.192C78.9988 336.733 80.1411 337.785 81.569 337.785ZM85.903 337.785C87.0378 337.785 87.7367 336.928 87.7367 335.876C87.7367 334.832 87.0378 333.975 85.903 333.975C84.7758 333.975 84.0693 334.832 84.0693 335.876C84.0693 336.928 84.7758 337.785 85.903 337.785ZM85.903 337.184C85.1816 337.184 84.7758 336.568 84.7758 335.876C84.7758 335.192 85.1816 334.576 85.903 334.576C86.632 334.576 87.0303 335.192 87.0303 335.876C87.0303 336.568 86.632 337.184 85.903 337.184ZM91.0454 337.695H91.7218V335.147C91.7218 334.381 91.3235 333.975 90.5569 333.975C89.9933 333.975 89.5123 334.283 89.2718 334.576V334.065H88.5955V337.695H89.2718V335.102C89.4672 334.832 89.8505 334.576 90.2713 334.576C90.7373 334.576 91.0454 334.771 91.0454 335.373V337.695ZM93.7929 337.785C94.1461 337.785 94.3565 337.687 94.4993 337.552L94.3265 337.041C94.2588 337.116 94.1161 337.184 93.9582 337.184C93.7253 337.184 93.605 336.996 93.605 336.74V334.659H94.3415V334.065H93.605V333.073H92.9287V334.065H92.3275V334.659H92.9287V336.891C92.9287 337.462 93.2218 337.785 93.7929 337.785ZM97.33 337.695H98.0064V335.245C98.0064 334.321 97.3375 333.975 96.5484 333.975C95.9623 333.975 95.4663 334.17 95.0604 334.569L95.3535 335.034C95.6767 334.711 96.0299 334.553 96.4432 334.553C96.9618 334.553 97.33 334.824 97.33 335.275V335.876C97.052 335.553 96.6311 335.395 96.1426 335.395C95.5339 335.395 94.8801 335.756 94.8801 336.583C94.8801 337.379 95.5414 337.785 96.1426 337.785C96.6311 337.785 97.0444 337.612 97.33 337.297V337.695ZM97.33 336.898C97.1271 337.169 96.7739 337.312 96.3981 337.312C95.9097 337.312 95.564 337.018 95.564 336.59C95.564 336.162 95.9097 335.869 96.3981 335.869C96.7739 335.869 97.1271 336.011 97.33 336.282V336.898ZM98.97 334.486C98.97 334.734 99.1805 334.952 99.436 334.952C99.6915 334.952 99.9094 334.734 99.9094 334.486C99.9094 334.23 99.6915 334.012 99.436 334.012C99.1805 334.012 98.97 334.23 98.97 334.486ZM98.97 337.304C98.97 337.56 99.1805 337.777 99.436 337.777C99.6915 337.777 99.9094 337.56 99.9094 337.304C99.9094 337.049 99.6915 336.838 99.436 336.838C99.1805 336.838 98.97 337.049 98.97 337.304ZM102.623 335.192C102.623 336.432 103.194 337.785 104.585 337.785C105.975 337.785 106.546 336.432 106.546 335.192C106.546 333.952 105.975 332.607 104.585 332.607C103.194 332.607 102.623 333.952 102.623 335.192ZM105.779 335.192C105.779 336.169 105.471 337.116 104.585 337.116C103.698 337.116 103.39 336.169 103.39 335.192C103.39 334.215 103.698 333.276 104.585 333.276C105.471 333.276 105.779 334.215 105.779 335.192ZM107.239 335.192C107.239 336.432 107.811 337.785 109.201 337.785C110.591 337.785 111.162 336.432 111.162 335.192C111.162 333.952 110.591 332.607 109.201 332.607C107.811 332.607 107.239 333.952 107.239 335.192ZM110.396 335.192C110.396 336.169 110.088 337.116 109.201 337.116C108.314 337.116 108.006 336.169 108.006 335.192C108.006 334.215 108.314 333.276 109.201 333.276C110.088 333.276 110.396 334.215 110.396 335.192ZM111.856 335.192C111.856 336.432 112.427 337.785 113.817 337.785C115.207 337.785 115.779 336.432 115.779 335.192C115.779 333.952 115.207 332.607 113.817 332.607C112.427 332.607 111.856 333.952 111.856 335.192ZM115.012 335.192C115.012 336.169 114.704 337.116 113.817 337.116C112.93 337.116 112.622 336.169 112.622 335.192C112.622 334.215 112.93 333.276 113.817 333.276C114.704 333.276 115.012 334.215 115.012 335.192ZM116.472 335.192C116.472 336.432 117.043 337.785 118.433 337.785C119.824 337.785 120.395 336.432 120.395 335.192C120.395 333.952 119.824 332.607 118.433 332.607C117.043 332.607 116.472 333.952 116.472 335.192ZM119.628 335.192C119.628 336.169 119.32 337.116 118.433 337.116C117.547 337.116 117.238 336.169 117.238 335.192C117.238 334.215 117.547 333.276 118.433 333.276C119.32 333.276 119.628 334.215 119.628 335.192ZM121.088 335.192C121.088 336.432 121.659 337.785 123.05 337.785C124.44 337.785 125.011 336.432 125.011 335.192C125.011 333.952 124.44 332.607 123.05 332.607C121.659 332.607 121.088 333.952 121.088 335.192ZM124.244 335.192C124.244 336.169 123.936 337.116 123.05 337.116C122.163 337.116 121.855 336.169 121.855 335.192C121.855 334.215 122.163 333.276 123.05 333.276C123.936 333.276 124.244 334.215 124.244 335.192ZM125.584 336.169H127.388V335.583H125.584V336.169ZM127.957 335.192C127.957 336.432 128.529 337.785 129.919 337.785C131.309 337.785 131.88 336.432 131.88 335.192C131.88 333.952 131.309 332.607 129.919 332.607C128.529 332.607 127.957 333.952 127.957 335.192ZM131.114 335.192C131.114 336.169 130.806 337.116 129.919 337.116C129.032 337.116 128.724 336.169 128.724 335.192C128.724 334.215 129.032 333.276 129.919 333.276C130.806 333.276 131.114 334.215 131.114 335.192Z" fill="#855B35"/>
<circle cx="48.2168" cy="173.064" r="10.5212" fill="#01BDE4"/>
<path d="M44.4592 173.064L45.2514 173.856L47.6565 171.451L47.6565 176.822L48.777 176.822L48.777 171.451L51.1822 173.856L51.9744 173.064L48.2168 169.307L44.4592 173.064Z" fill="#FBF9BE"/>
<circle cx="48.2168" cy="275.271" r="10.5212" fill="#01BDE4"/>
<path d="M51.9744 275.271L51.1822 274.478L48.7771 276.883V271.513H47.6566V276.883L45.2514 274.478L44.4592 275.271L48.2168 279.028L51.9744 275.271Z" fill="#FBF9BE"/>
</g>
<defs>
<linearGradient id="paint0_linear_3_898" x1="204.831" y1="-11.5848" x2="43.6912" y2="466.964" gradientUnits="userSpaceOnUse">
<stop stop-color="#F7F7FB"/>
<stop offset="1" stop-color="#E7E7E7"/>
</linearGradient>
<linearGradient id="paint1_linear_3_898" x1="208.49" y1="7.53701" x2="-61.0355" y2="556.471" gradientUnits="userSpaceOnUse">
<stop stop-color="white"/>
<stop offset="1" stop-color="#FFF5D5"/>
</linearGradient>
<linearGradient id="paint2_linear_3_898" x1="-13.7834" y1="424.43" x2="-66.7644" y2="57.0571" gradientUnits="userSpaceOnUse">
<stop stop-color="#00A5F0"/>
<stop offset="1" stop-color="#00D7D7"/>
</linearGradient>
<linearGradient id="paint3_linear_3_898" x1="111.908" y1="334.265" x2="112.095" y2="389.313" gradientUnits="userSpaceOnUse">
<stop stop-color="#CCB579" stop-opacity="0"/>
<stop offset="1" stop-color="#CCB579"/>
</linearGradient>
</defs>
</svg>
